<svg xmlns="http://www.w3.org/2000/svg" xmlns:xlink="http://www.w3.org/1999/xlink" width="2048" zoomAndPan="magnify" viewBox="0 0 1536 383.999986" height="512" preserveAspectRatio="xMidYMid meet" version="1.2"><defs/><g id="1d0c4ee7db"><g style="fill:#737373;fill-opacity:1;"><g transform="translate(38.400026, 318.191545)"><path style="stroke:none" d="M 217.71875 -218.34375 L 217.71875 -161.796875 L 210.828125 -161.796875 C 186.910156 -182.472656 164.828125 -192.8125 144.578125 -192.8125 C 124.835938 -192.8125 108.910156 -186.207031 96.796875 -173 C 84.679688 -159.789062 78.625 -140.863281 78.625 -116.21875 C 78.625 -91.675781 84.734375 -72.90625 96.953125 -59.90625 C 109.171875 -46.90625 125.148438 -40.40625 144.890625 -40.40625 C 166.191406 -40.40625 188.378906 -50.691406 211.453125 -71.265625 L 217.71875 -71.265625 L 217.71875 -15.5 C 202.050781 -8.195312 188.394531 -3.03125 176.75 0 C 165.113281 3.03125 151.253906 4.546875 135.171875 4.546875 C 98.941406 4.546875 70.046875 -5.945312 48.484375 -26.9375 C 26.921875 -47.925781 16.140625 -77.738281 16.140625 -116.375 C 16.140625 -153.863281 26.921875 -183.46875 48.484375 -205.1875 C 70.046875 -226.90625 98.992188 -237.765625 135.328125 -237.765625 C 164.566406 -237.765625 192.03125 -231.289062 217.71875 -218.34375 Z M 217.71875 -218.34375 "/></g><g transform="translate(270.522771, 318.191545)"><path style="stroke:none" d="M 217.71875 -218.34375 L 217.71875 -161.796875 L 210.828125 -161.796875 C 186.910156 -182.472656 164.828125 -192.8125 144.578125 -192.8125 C 124.835938 -192.8125 108.910156 -186.207031 96.796875 -173 C 84.679688 -159.789062 78.625 -140.863281 78.625 -116.21875 C 78.625 -91.675781 84.734375 -72.90625 96.953125 -59.90625 C 109.171875 -46.90625 125.148438 -40.40625 144.890625 -40.40625 C 166.191406 -40.40625 188.378906 -50.691406 211.453125 -71.265625 L 217.71875 -71.265625 L 217.71875 -15.5 C 202.050781 -8.195312 188.394531 -3.03125 176.75 0 C 165.113281 3.03125 151.253906 4.546875 135.171875 4.546875 C 98.941406 4.546875 70.046875 -5.945312 48.484375 -26.9375 C 26.921875 -47.925781 16.140625 -77.738281 16.140625 -116.375 C 16.140625 -153.863281 26.921875 -183.46875 48.484375 -205.1875 C 70.046875 -226.90625 98.992188 -237.765625 135.328125 -237.765625 C 164.566406 -237.765625 192.03125 -231.289062 217.71875 -218.34375 Z M 217.71875 -218.34375 "/></g></g><g style="fill:#737373;fill-opacity:1;"><g transform="translate(507.031072, 318.191545)"><path style="stroke:none" d="M 17.078125 -13.78125 L 17.078125 -69.703125 L 23.65625 -69.703125 C 49.757812 -49.128906 78.472656 -38.84375 109.796875 -38.84375 C 139.660156 -38.84375 154.59375 -46.726562 154.59375 -62.5 C 154.59375 -66.988281 152.554688 -71.347656 148.484375 -75.578125 C 144.410156 -79.804688 133.394531 -83.695312 115.4375 -87.25 C 92.363281 -91.84375 74.328125 -96.617188 61.328125 -101.578125 C 48.328125 -106.535156 37.9375 -114.207031 30.15625 -124.59375 C 22.375 -134.988281 18.484375 -148.019531 18.484375 -163.6875 C 18.484375 -185.40625 28.242188 -203.128906 47.765625 -216.859375 C 67.296875 -230.585938 92.304688 -237.453125 122.796875 -237.453125 C 152.660156 -237.453125 180.800781 -232.234375 207.21875 -221.796875 L 207.21875 -168.0625 L 200.796875 -168.0625 C 177.722656 -185.707031 152.296875 -194.53125 124.515625 -194.53125 C 110.734375 -194.53125 99.925781 -192.414062 92.09375 -188.1875 C 84.269531 -183.957031 80.359375 -178.453125 80.359375 -171.671875 C 80.359375 -165.503906 82.785156 -160.695312 87.640625 -157.25 C 92.492188 -153.8125 105.46875 -150.054688 126.5625 -145.984375 C 161.4375 -139.085938 185.140625 -130.023438 197.671875 -118.796875 C 210.203125 -107.578125 216.46875 -92.410156 216.46875 -73.296875 C 216.46875 -50.328125 206.726562 -31.660156 187.25 -17.296875 C 167.78125 -2.941406 141.335938 4.234375 107.921875 4.234375 C 76.378906 4.234375 46.097656 -1.769531 17.078125 -13.78125 Z M 17.078125 -13.78125 "/></g></g><g style="fill:#737373;fill-opacity:1;"><g transform="translate(734.924902, 318.191545)"><path style="stroke:none" d="M 198.453125 0 L 29.765625 0 L 29.765625 -233.21875 L 198.453125 -233.21875 L 198.453125 -188.109375 L 89.59375 -188.109375 L 89.59375 -147.859375 L 190.625 -147.859375 L 190.625 -102.75 L 89.59375 -102.75 L 89.59375 -45.109375 L 198.453125 -45.109375 Z M 198.453125 0 "/></g></g><g style="fill:#737373;fill-opacity:1;"><g transform="translate(972.102792, 288.188642)"><path style="stroke:none" d="M -0.3125 -86.296875 C -2.71875 -86.515625 -4.648438 -88.082031 -6.109375 -91 C -7.566406 -93.925781 -8.296875 -97.164062 -8.296875 -100.71875 C -8.296875 -102.382812 -8.164062 -104.023438 -7.90625 -105.640625 C -7.644531 -107.265625 -7.203125 -108.703125 -6.578125 -109.953125 C -5.953125 -111.203125 -5.164062 -112.21875 -4.21875 -113 C -3.28125 -113.789062 -2.1875 -114.1875 -0.9375 -114.1875 C 2.925781 -114.1875 7.363281 -114.316406 12.375 -114.578125 C 17.382812 -114.835938 22.757812 -115.125 28.5 -115.4375 C 31.425781 -115.75 33.046875 -117.472656 33.359375 -120.609375 C 34.296875 -135.742188 35.597656 -148.789062 37.265625 -159.75 C 38.941406 -170.71875 40.976562 -179.988281 43.375 -187.5625 C 45.78125 -195.132812 48.523438 -201.269531 51.609375 -205.96875 C 54.691406 -210.664062 58.113281 -214.269531 61.875 -216.78125 C 63.019531 -217.613281 64.375 -218.472656 65.9375 -219.359375 C 67.507812 -220.242188 68.972656 -220.6875 70.328125 -220.6875 C 72.941406 -220.6875 75.679688 -220.035156 78.546875 -218.734375 C 81.421875 -217.429688 84.082031 -215.757812 86.53125 -213.71875 C 88.988281 -211.6875 91 -209.390625 92.5625 -206.828125 C 94.132812 -204.273438 94.921875 -201.742188 94.921875 -199.234375 C 94.921875 -198.296875 94.710938 -197.539062 94.296875 -196.96875 C 93.878906 -196.394531 93.351562 -195.84375 92.71875 -195.3125 C 88.65625 -192.289062 85.054688 -188.898438 81.921875 -185.140625 C 78.785156 -181.378906 76.117188 -176.78125 73.921875 -171.34375 C 71.734375 -165.914062 69.90625 -159.390625 68.4375 -151.765625 C 66.976562 -144.148438 65.882812 -134.960938 65.15625 -124.203125 C 65.15625 -122.535156 65.441406 -121.3125 66.015625 -120.53125 C 66.585938 -119.75 67.660156 -119.359375 69.234375 -119.359375 C 73.304688 -119.359375 77.40625 -119.671875 81.53125 -120.296875 C 85.65625 -120.921875 89.59375 -121.570312 93.34375 -122.25 C 97.101562 -122.925781 100.65625 -123.578125 104 -124.203125 C 107.34375 -124.835938 110.320312 -125.15625 112.9375 -125.15625 C 114.8125 -125.15625 116.191406 -124.03125 117.078125 -121.78125 C 117.960938 -119.53125 118.40625 -116.789062 118.40625 -113.5625 C 118.40625 -111.675781 118.25 -109.738281 117.9375 -107.75 C 117.625 -105.769531 117.128906 -104 116.453125 -102.4375 C 115.773438 -100.875 114.914062 -99.539062 113.875 -98.4375 C 112.832031 -97.34375 111.523438 -96.691406 109.953125 -96.484375 L 68.296875 -92.09375 C 66.097656 -91.78125 64.765625 -90.894531 64.296875 -89.4375 C 63.828125 -87.976562 63.59375 -85.941406 63.59375 -83.328125 C 63.59375 -60.253906 64.164062 -40.414062 65.3125 -23.8125 C 66.457031 -7.207031 67.734375 6.753906 69.140625 18.078125 C 70.554688 29.410156 71.835938 38.34375 72.984375 44.875 C 74.140625 51.40625 74.71875 56.128906 74.71875 59.046875 C 74.71875 61.242188 73.851562 63.226562 72.125 65 C 70.40625 66.78125 68.210938 68.296875 65.546875 69.546875 C 62.890625 70.796875 59.992188 71.757812 56.859375 72.4375 C 53.722656 73.113281 50.796875 73.453125 48.078125 73.453125 C 45.472656 73.453125 43.148438 73.007812 41.109375 72.125 C 39.078125 71.238281 37.90625 69.753906 37.59375 67.671875 C 36.550781 60.359375 35.660156 52.34375 34.921875 43.625 C 34.191406 34.90625 33.59375 25.242188 33.125 14.640625 C 32.65625 4.046875 32.316406 -7.539062 32.109375 -20.125 C 31.898438 -32.707031 31.796875 -46.519531 31.796875 -61.5625 C 31.796875 -65.414062 31.796875 -69.171875 31.796875 -72.828125 C 31.796875 -76.484375 31.898438 -80.140625 32.109375 -83.796875 C 32.109375 -86.929688 30.382812 -88.5 26.9375 -88.5 Z M -0.3125 -86.296875 "/></g><g transform="translate(1070.308568, 288.188642)"><path style="stroke:none" d="M 111.359375 -136.890625 C 117.109375 -136.890625 122.644531 -136.003906 127.96875 -134.234375 C 133.289062 -132.460938 137.988281 -130.007812 142.0625 -126.875 C 146.132812 -123.738281 149.394531 -119.976562 151.84375 -115.59375 C 154.300781 -111.207031 155.53125 -106.351562 155.53125 -101.03125 C 155.53125 -98.832031 155.035156 -96.710938 154.046875 -94.671875 C 153.054688 -92.640625 151.722656 -90.867188 150.046875 -89.359375 C 148.378906 -87.847656 146.472656 -86.644531 144.328125 -85.75 C 142.191406 -84.863281 139.972656 -84.421875 137.671875 -84.421875 C 137.460938 -84.421875 137.28125 -84.394531 137.125 -84.34375 C 136.96875 -84.289062 136.785156 -84.265625 136.578125 -84.265625 C 136.367188 -84.160156 136.160156 -84.109375 135.953125 -84.109375 L 136.578125 -71.578125 C 136.992188 -56.648438 139.109375 -45.738281 142.921875 -38.84375 C 146.734375 -31.945312 151.722656 -28.5 157.890625 -28.5 C 160.078125 -28.5 162.03125 -28.707031 163.75 -29.125 C 165.476562 -29.550781 167.097656 -30.050781 168.609375 -30.625 C 170.128906 -31.195312 171.566406 -31.691406 172.921875 -32.109375 C 174.273438 -32.523438 175.632812 -32.734375 177 -32.734375 C 179.394531 -32.734375 181.503906 -31.6875 183.328125 -29.59375 C 185.160156 -27.507812 186.078125 -25.003906 186.078125 -22.078125 C 186.078125 -19.160156 184.953125 -16.238281 182.703125 -13.3125 C 180.460938 -10.382812 177.515625 -7.742188 173.859375 -5.390625 C 170.203125 -3.046875 166.078125 -1.144531 161.484375 0.3125 C 156.890625 1.769531 152.242188 2.5 147.546875 2.5 C 139.398438 2.5 132.242188 -0.863281 126.078125 -7.59375 C 119.921875 -14.332031 115.539062 -24.226562 112.9375 -37.28125 C 112.300781 -39.363281 111.460938 -40.40625 110.421875 -40.40625 C 109.171875 -40.40625 108.078125 -39.78125 107.140625 -38.53125 C 96.796875 -25.476562 85.773438 -15.6875 74.078125 -9.15625 C 62.390625 -2.632812 50.851562 0.625 39.46875 0.625 C 34.144531 0.625 29.34375 -0.15625 25.0625 -1.71875 C 20.78125 -3.289062 17.148438 -5.507812 14.171875 -8.375 C 11.203125 -11.25 8.90625 -14.75 7.28125 -18.875 C 5.664062 -23 4.859375 -27.617188 4.859375 -32.734375 C 4.859375 -39.941406 6.445312 -47.507812 9.625 -55.4375 C 12.8125 -63.375 17.117188 -71.207031 22.546875 -78.9375 C 27.984375 -86.664062 34.273438 -94.023438 41.421875 -101.015625 C 48.578125 -108.015625 56.097656 -114.175781 63.984375 -119.5 C 71.867188 -124.832031 79.882812 -129.0625 88.03125 -132.1875 C 96.175781 -135.320312 103.953125 -136.890625 111.359375 -136.890625 Z M 106.203125 -82.703125 C 108.078125 -86.253906 109.796875 -88.835938 111.359375 -90.453125 C 112.929688 -92.066406 115.175781 -93.140625 118.09375 -93.671875 C 120.394531 -93.984375 121.546875 -94.710938 121.546875 -95.859375 C 121.546875 -96.691406 121.234375 -97.578125 120.609375 -98.515625 C 118.617188 -101.234375 116.523438 -103.609375 114.328125 -105.640625 C 112.140625 -107.679688 109.21875 -108.703125 105.5625 -108.703125 C 101.601562 -108.703125 97.164062 -107.550781 92.25 -105.25 C 87.34375 -102.957031 82.359375 -99.90625 77.296875 -96.09375 C 72.234375 -92.28125 67.273438 -87.945312 62.421875 -83.09375 C 57.566406 -78.238281 53.257812 -73.25 49.5 -68.125 C 45.738281 -63.007812 42.707031 -57.945312 40.40625 -52.9375 C 38.113281 -47.925781 36.96875 -43.4375 36.96875 -39.46875 C 36.96875 -35.914062 37.929688 -33.144531 39.859375 -31.15625 C 41.796875 -29.175781 44.429688 -28.1875 47.765625 -28.1875 C 56.328125 -28.1875 65.671875 -32.726562 75.796875 -41.8125 C 85.929688 -50.90625 96.066406 -64.535156 106.203125 -82.703125 Z M 142.0625 -201.734375 C 142.0625 -200.171875 141.304688 -198.65625 139.796875 -197.1875 C 138.285156 -195.726562 136.25 -194.113281 133.6875 -192.34375 C 131.132812 -190.570312 128.132812 -188.507812 124.6875 -186.15625 C 121.238281 -183.800781 117.609375 -180.925781 113.796875 -177.53125 C 109.984375 -174.144531 106.039062 -170.078125 101.96875 -165.328125 C 97.894531 -160.578125 93.925781 -154.960938 90.0625 -148.484375 C 89.226562 -147.023438 88.050781 -146.035156 86.53125 -145.515625 C 85.019531 -144.992188 83.328125 -144.734375 81.453125 -144.734375 C 79.679688 -144.734375 77.929688 -144.96875 76.203125 -145.4375 C 74.484375 -145.90625 72.914062 -146.53125 71.5 -147.3125 C 70.09375 -148.09375 68.945312 -149.03125 68.0625 -150.125 C 67.175781 -151.226562 66.734375 -152.40625 66.734375 -153.65625 C 66.734375 -156.476562 67.59375 -160.003906 69.3125 -164.234375 C 71.039062 -168.460938 73.335938 -172.898438 76.203125 -177.546875 C 79.078125 -182.191406 82.421875 -186.835938 86.234375 -191.484375 C 90.046875 -196.128906 94.066406 -200.304688 98.296875 -204.015625 C 102.523438 -207.722656 106.804688 -210.722656 111.140625 -213.015625 C 115.472656 -215.316406 119.675781 -216.46875 123.75 -216.46875 C 125.625 -216.46875 127.628906 -215.941406 129.765625 -214.890625 C 131.910156 -213.847656 133.894531 -212.566406 135.71875 -211.046875 C 137.550781 -209.535156 139.066406 -207.921875 140.265625 -206.203125 C 141.460938 -204.484375 142.0625 -202.992188 142.0625 -201.734375 Z M 142.0625 -201.734375 "/></g><g transform="translate(1248.394642, 288.188642)"><path style="stroke:none" d="M 68.296875 -129.21875 C 73.722656 -129.21875 78.992188 -128.429688 84.109375 -126.859375 C 89.222656 -125.296875 93.738281 -123.179688 97.65625 -120.515625 C 101.570312 -117.859375 104.726562 -114.832031 107.125 -111.4375 C 109.53125 -108.050781 110.734375 -104.582031 110.734375 -101.03125 C 110.734375 -98.726562 110.265625 -96.503906 109.328125 -94.359375 C 108.390625 -92.222656 107.132812 -90.34375 105.5625 -88.71875 C 104 -87.101562 102.222656 -85.800781 100.234375 -84.8125 C 98.253906 -83.820312 96.171875 -83.328125 93.984375 -83.328125 C 91.578125 -83.328125 89.378906 -84.238281 87.390625 -86.0625 C 85.410156 -87.894531 83.296875 -89.929688 81.046875 -92.171875 C 78.804688 -94.421875 76.300781 -96.457031 73.53125 -98.28125 C 70.769531 -100.113281 67.457031 -101.03125 63.59375 -101.03125 C 59.832031 -101.03125 56.4375 -100.140625 53.40625 -98.359375 C 50.382812 -96.585938 47.851562 -94.109375 45.8125 -90.921875 C 43.78125 -87.734375 42.210938 -83.972656 41.109375 -79.640625 C 40.015625 -75.304688 39.46875 -70.582031 39.46875 -65.46875 C 39.46875 -50.851562 42.234375 -39.707031 47.765625 -32.03125 C 53.304688 -24.351562 61.242188 -20.515625 71.578125 -20.515625 C 76.484375 -20.515625 80.6875 -21.296875 84.1875 -22.859375 C 87.6875 -24.429688 90.765625 -26.15625 93.421875 -28.03125 C 96.085938 -29.914062 98.515625 -31.640625 100.703125 -33.203125 C 102.898438 -34.773438 105.148438 -35.5625 107.453125 -35.5625 C 108.703125 -35.5625 109.953125 -35.164062 111.203125 -34.375 C 112.460938 -33.59375 113.585938 -32.601562 114.578125 -31.40625 C 115.566406 -30.207031 116.398438 -28.875 117.078125 -27.40625 C 117.753906 -25.945312 118.09375 -24.488281 118.09375 -23.03125 C 118.09375 -19.582031 116.394531 -16.03125 113 -12.375 C 109.613281 -8.71875 105.253906 -5.398438 99.921875 -2.421875 C 94.597656 0.546875 88.671875 2.96875 82.140625 4.84375 C 75.617188 6.726562 69.28125 7.671875 63.125 7.671875 C 54.875 7.671875 47.300781 6.078125 40.40625 2.890625 C 33.519531 -0.285156 27.566406 -4.71875 22.546875 -10.40625 C 17.535156 -16.101562 13.644531 -22.921875 10.875 -30.859375 C 8.113281 -38.796875 6.734375 -47.566406 6.734375 -57.171875 C 6.734375 -67.609375 8.269531 -77.210938 11.34375 -85.984375 C 14.425781 -94.753906 18.707031 -102.347656 24.1875 -108.765625 C 29.675781 -115.191406 36.179688 -120.207031 43.703125 -123.8125 C 51.222656 -127.414062 59.421875 -129.21875 68.296875 -129.21875 Z M 68.296875 -129.21875 "/></g><g transform="translate(1357.407753, 288.188642)"><path style="stroke:none" d="M 36.5 -159.765625 C 33.46875 -159.765625 30.617188 -160.207031 27.953125 -161.09375 C 25.296875 -161.976562 23 -163.226562 21.0625 -164.84375 C 19.132812 -166.46875 17.59375 -168.375 16.4375 -170.5625 C 15.289062 -172.757812 14.71875 -175.164062 14.71875 -177.78125 C 14.71875 -182.164062 16.46875 -185.710938 19.96875 -188.421875 C 23.46875 -191.140625 28.140625 -192.5 33.984375 -192.5 C 36.703125 -192.5 39.3125 -192.003906 41.8125 -191.015625 C 44.320312 -190.023438 46.539062 -188.691406 48.46875 -187.015625 C 50.40625 -185.347656 51.945312 -183.390625 53.09375 -181.140625 C 54.25 -178.898438 54.828125 -176.578125 54.828125 -174.171875 C 54.828125 -169.679688 53.179688 -166.15625 49.890625 -163.59375 C 46.597656 -161.039062 42.132812 -159.765625 36.5 -159.765625 Z M 15.03125 -111.984375 C 15.03125 -115.640625 16.625 -118.640625 19.8125 -120.984375 C 23 -123.335938 27.203125 -124.515625 32.421875 -124.515625 C 41.816406 -124.515625 46.828125 -121.28125 47.453125 -114.8125 C 47.867188 -110.320312 48.3125 -105.253906 48.78125 -99.609375 C 49.257812 -93.972656 49.734375 -87.992188 50.203125 -81.671875 C 50.671875 -75.359375 51.085938 -68.832031 51.453125 -62.09375 C 51.816406 -55.363281 52.15625 -48.734375 52.46875 -42.203125 C 52.78125 -35.679688 53.039062 -29.390625 53.25 -23.328125 C 53.457031 -17.273438 53.5625 -11.742188 53.5625 -6.734375 C 53.5625 -1.515625 51.707031 2.394531 48 5 C 44.300781 7.613281 38.898438 8.921875 31.796875 8.921875 C 28.554688 8.921875 26.019531 8.164062 24.1875 6.65625 C 22.363281 5.144531 21.453125 2.925781 21.453125 0 C 21.453125 -14.40625 21.113281 -27.898438 20.4375 -40.484375 C 19.757812 -53.066406 19.03125 -64.265625 18.25 -74.078125 C 17.46875 -83.898438 16.734375 -92.070312 16.046875 -98.59375 C 15.367188 -105.125 15.03125 -109.585938 15.03125 -111.984375 Z M 15.03125 -111.984375 "/></g></g><g style="fill:#737373;fill-opacity:1;"><g transform="translate(1426.950571, 288.188642)"><path style="stroke:none" d="M 4.546875 -178.40625 C 4.546875 -183.832031 6.109375 -187.691406 9.234375 -189.984375 C 12.367188 -192.285156 17.539062 -193.4375 24.75 -193.4375 C 27.25 -193.4375 29.4375 -193.175781 31.3125 -192.65625 C 33.195312 -192.132812 34.765625 -191.269531 36.015625 -190.0625 C 37.273438 -188.863281 38.296875 -187.242188 39.078125 -185.203125 C 39.859375 -183.171875 40.507812 -180.59375 41.03125 -177.46875 C 42.394531 -168.164062 43.78125 -158.425781 45.1875 -148.25 C 46.59375 -138.070312 47.945312 -127.941406 49.25 -117.859375 C 50.5625 -107.785156 51.789062 -97.972656 52.9375 -88.421875 C 54.09375 -78.867188 55.113281 -69.992188 56 -61.796875 C 56.882812 -53.597656 57.5625 -46.335938 58.03125 -40.015625 C 58.5 -33.703125 58.734375 -28.71875 58.734375 -25.0625 C 58.734375 -21.300781 58.394531 -18.113281 57.71875 -15.5 C 57.039062 -12.894531 55.890625 -10.804688 54.265625 -9.234375 C 52.648438 -7.671875 50.5625 -6.550781 48 -5.875 C 45.445312 -5.195312 42.289062 -4.859375 38.53125 -4.859375 C 34.875 -4.859375 31.972656 -5.796875 29.828125 -7.671875 C 27.691406 -9.554688 26.625 -12.429688 26.625 -16.296875 C 26.625 -20.253906 26.3125 -25.550781 25.6875 -32.1875 C 25.0625 -38.820312 24.222656 -46.207031 23.171875 -54.34375 C 22.128906 -62.488281 20.957031 -71.15625 19.65625 -80.34375 C 18.351562 -89.539062 16.992188 -98.628906 15.578125 -107.609375 C 14.171875 -116.585938 12.8125 -125.226562 11.5 -133.53125 C 10.195312 -141.832031 9.023438 -149.191406 7.984375 -155.609375 C 6.941406 -162.035156 6.109375 -167.3125 5.484375 -171.4375 C 4.859375 -175.5625 4.546875 -177.882812 4.546875 -178.40625 Z M 4.546875 -178.40625 "/></g></g></g></svg>