<svg xmlns="http://www.w3.org/2000/svg" xmlns:xlink="http://www.w3.org/1999/xlink" width="1080" zoomAndPan="magnify"
    viewBox="0 0 810 809.999993" height="1080" preserveAspectRatio="xMidYMid meet" version="1.0">
    <defs>
        <g />
        <linearGradient x1="540" gradientTransform="matrix(0.75, 0, 0, 0.75, 0.0000035, 0.00002)" y1="0" x2="540"
            gradientUnits="userSpaceOnUse" y2="1079.999955" id="8b6d2b3ccd">
            <stop stop-opacity="1" stop-color="rgb(85.488892%, 31.369019%, 33.329773%)" offset="0" />
            <stop stop-opacity="1" stop-color="rgb(85.531616%, 31.770325%, 33.351135%)" offset="0.00390625" />
            <stop stop-opacity="1" stop-color="rgb(85.574341%, 32.171631%, 33.372498%)" offset="0.0078125" />
            <stop stop-opacity="1" stop-color="rgb(85.617065%, 32.572937%, 33.39386%)" offset="0.0117187" />
            <stop stop-opacity="1" stop-color="rgb(85.661316%, 32.974243%, 33.415222%)" offset="0.015625" />
            <stop stop-opacity="1" stop-color="rgb(85.704041%, 33.375549%, 33.436584%)" offset="0.0195312" />
            <stop stop-opacity="1" stop-color="rgb(85.746765%, 33.778381%, 33.457947%)" offset="0.0234375" />
            <stop stop-opacity="1" stop-color="rgb(85.78949%, 34.179688%, 33.479309%)" offset="0.0273438" />
            <stop stop-opacity="1" stop-color="rgb(85.832214%, 34.580994%, 33.500671%)" offset="0.03125" />
            <stop stop-opacity="1" stop-color="rgb(85.874939%, 34.9823%, 33.522034%)" offset="0.0351562" />
            <stop stop-opacity="1" stop-color="rgb(85.917664%, 35.383606%, 33.543396%)" offset="0.0390625" />
            <stop stop-opacity="1" stop-color="rgb(85.960388%, 35.784912%, 33.564758%)" offset="0.0429687" />
            <stop stop-opacity="1" stop-color="rgb(86.004639%, 36.186218%, 33.587646%)" offset="0.046875" />
            <stop stop-opacity="1" stop-color="rgb(86.047363%, 36.587524%, 33.609009%)" offset="0.0507812" />
            <stop stop-opacity="1" stop-color="rgb(86.090088%, 36.988831%, 33.630371%)" offset="0.0546875" />
            <stop stop-opacity="1" stop-color="rgb(86.132812%, 37.390137%, 33.651733%)" offset="0.0585938" />
            <stop stop-opacity="1" stop-color="rgb(86.175537%, 37.791443%, 33.673096%)" offset="0.0625" />
            <stop stop-opacity="1" stop-color="rgb(86.218262%, 38.192749%, 33.694458%)" offset="0.0664062" />
            <stop stop-opacity="1" stop-color="rgb(86.260986%, 38.594055%, 33.71582%)" offset="0.0703125" />
            <stop stop-opacity="1" stop-color="rgb(86.303711%, 38.995361%, 33.737183%)" offset="0.0742187" />
            <stop stop-opacity="1" stop-color="rgb(86.346436%, 39.396667%, 33.758545%)" offset="0.078125" />
            <stop stop-opacity="1" stop-color="rgb(86.38916%, 39.797974%, 33.779907%)" offset="0.0820312" />
            <stop stop-opacity="1" stop-color="rgb(86.433411%, 40.200806%, 33.80127%)" offset="0.0859375" />
            <stop stop-opacity="1" stop-color="rgb(86.476135%, 40.602112%, 33.822632%)" offset="0.0898437" />
            <stop stop-opacity="1" stop-color="rgb(86.51886%, 41.003418%, 33.84552%)" offset="0.09375" />
            <stop stop-opacity="1" stop-color="rgb(86.561584%, 41.404724%, 33.866882%)" offset="0.0976562" />
            <stop stop-opacity="1" stop-color="rgb(86.604309%, 41.80603%, 33.888245%)" offset="0.101562" />
            <stop stop-opacity="1" stop-color="rgb(86.647034%, 42.207336%, 33.909607%)" offset="0.105469" />
            <stop stop-opacity="1" stop-color="rgb(86.689758%, 42.608643%, 33.930969%)" offset="0.109375" />
            <stop stop-opacity="1" stop-color="rgb(86.732483%, 43.009949%, 33.952332%)" offset="0.113281" />
            <stop stop-opacity="1" stop-color="rgb(86.775208%, 43.411255%, 33.973694%)" offset="0.117188" />
            <stop stop-opacity="1" stop-color="rgb(86.817932%, 43.812561%, 33.995056%)" offset="0.121094" />
            <stop stop-opacity="1" stop-color="rgb(86.862183%, 44.213867%, 34.016418%)" offset="0.125" />
            <stop stop-opacity="1" stop-color="rgb(86.904907%, 44.615173%, 34.037781%)" offset="0.128906" />
            <stop stop-opacity="1" stop-color="rgb(86.947632%, 45.016479%, 34.059143%)" offset="0.132812" />
            <stop stop-opacity="1" stop-color="rgb(86.990356%, 45.417786%, 34.080505%)" offset="0.136719" />
            <stop stop-opacity="1" stop-color="rgb(87.033081%, 45.820618%, 34.103394%)" offset="0.140625" />
            <stop stop-opacity="1" stop-color="rgb(87.075806%, 46.221924%, 34.124756%)" offset="0.144531" />
            <stop stop-opacity="1" stop-color="rgb(87.11853%, 46.62323%, 34.146118%)" offset="0.148437" />
            <stop stop-opacity="1" stop-color="rgb(87.161255%, 47.024536%, 34.16748%)" offset="0.152344" />
            <stop stop-opacity="1" stop-color="rgb(87.205505%, 47.425842%, 34.188843%)" offset="0.15625" />
            <stop stop-opacity="1" stop-color="rgb(87.24823%, 47.827148%, 34.210205%)" offset="0.160156" />
            <stop stop-opacity="1" stop-color="rgb(87.290955%, 48.228455%, 34.231567%)" offset="0.164062" />
            <stop stop-opacity="1" stop-color="rgb(87.333679%, 48.629761%, 34.25293%)" offset="0.167969" />
            <stop stop-opacity="1" stop-color="rgb(87.376404%, 49.031067%, 34.274292%)" offset="0.171875" />
            <stop stop-opacity="1" stop-color="rgb(87.419128%, 49.432373%, 34.295654%)" offset="0.175781" />
            <stop stop-opacity="1" stop-color="rgb(87.461853%, 49.833679%, 34.317017%)" offset="0.179687" />
            <stop stop-opacity="1" stop-color="rgb(87.504578%, 50.234985%, 34.338379%)" offset="0.183594" />
            <stop stop-opacity="1" stop-color="rgb(87.547302%, 50.636292%, 34.359741%)" offset="0.1875" />
            <stop stop-opacity="1" stop-color="rgb(87.590027%, 51.037598%, 34.381104%)" offset="0.191406" />
            <stop stop-opacity="1" stop-color="rgb(87.634277%, 51.438904%, 34.403992%)" offset="0.195312" />
            <stop stop-opacity="1" stop-color="rgb(87.677002%, 51.84021%, 34.425354%)" offset="0.199219" />
            <stop stop-opacity="1" stop-color="rgb(87.719727%, 52.243042%, 34.446716%)" offset="0.203125" />
            <stop stop-opacity="1" stop-color="rgb(87.762451%, 52.644348%, 34.468079%)" offset="0.207031" />
            <stop stop-opacity="1" stop-color="rgb(87.805176%, 53.045654%, 34.489441%)" offset="0.210938" />
            <stop stop-opacity="1" stop-color="rgb(87.8479%, 53.44696%, 34.510803%)" offset="0.214844" />
            <stop stop-opacity="1" stop-color="rgb(87.890625%, 53.848267%, 34.532166%)" offset="0.21875" />
            <stop stop-opacity="1" stop-color="rgb(87.93335%, 54.249573%, 34.553528%)" offset="0.222656" />
            <stop stop-opacity="1" stop-color="rgb(87.9776%, 54.650879%, 34.57489%)" offset="0.226562" />
            <stop stop-opacity="1" stop-color="rgb(88.020325%, 55.052185%, 34.596252%)" offset="0.230469" />
            <stop stop-opacity="1" stop-color="rgb(88.063049%, 55.453491%, 34.617615%)" offset="0.234375" />
            <stop stop-opacity="1" stop-color="rgb(88.105774%, 55.854797%, 34.638977%)" offset="0.238281" />
            <stop stop-opacity="1" stop-color="rgb(88.148499%, 56.256104%, 34.661865%)" offset="0.242188" />
            <stop stop-opacity="1" stop-color="rgb(88.191223%, 56.65741%, 34.683228%)" offset="0.246094" />
            <stop stop-opacity="1" stop-color="rgb(88.233948%, 57.058716%, 34.70459%)" offset="0.25" />
            <stop stop-opacity="1" stop-color="rgb(88.276672%, 57.460022%, 34.725952%)" offset="0.253906" />
            <stop stop-opacity="1" stop-color="rgb(88.319397%, 57.861328%, 34.747314%)" offset="0.257812" />
            <stop stop-opacity="1" stop-color="rgb(88.362122%, 58.262634%, 34.768677%)" offset="0.261719" />
            <stop stop-opacity="1" stop-color="rgb(88.406372%, 58.665466%, 34.790039%)" offset="0.265625" />
            <stop stop-opacity="1" stop-color="rgb(88.449097%, 59.066772%, 34.811401%)" offset="0.269531" />
            <stop stop-opacity="1" stop-color="rgb(88.491821%, 59.468079%, 34.832764%)" offset="0.273437" />
            <stop stop-opacity="1" stop-color="rgb(88.534546%, 59.869385%, 34.854126%)" offset="0.277344" />
            <stop stop-opacity="1" stop-color="rgb(88.577271%, 60.270691%, 34.875488%)" offset="0.28125" />
            <stop stop-opacity="1" stop-color="rgb(88.619995%, 60.671997%, 34.896851%)" offset="0.285156" />
            <stop stop-opacity="1" stop-color="rgb(88.66272%, 61.073303%, 34.919739%)" offset="0.289062" />
            <stop stop-opacity="1" stop-color="rgb(88.705444%, 61.474609%, 34.941101%)" offset="0.292969" />
            <stop stop-opacity="1" stop-color="rgb(88.748169%, 61.875916%, 34.962463%)" offset="0.296875" />
            <stop stop-opacity="1" stop-color="rgb(88.790894%, 62.277222%, 34.983826%)" offset="0.300781" />
            <stop stop-opacity="1" stop-color="rgb(88.835144%, 62.678528%, 35.005188%)" offset="0.304687" />
            <stop stop-opacity="1" stop-color="rgb(88.877869%, 63.079834%, 35.02655%)" offset="0.308594" />
            <stop stop-opacity="1" stop-color="rgb(88.920593%, 63.48114%, 35.047913%)" offset="0.3125" />
            <stop stop-opacity="1" stop-color="rgb(88.963318%, 63.882446%, 35.069275%)" offset="0.316406" />
            <stop stop-opacity="1" stop-color="rgb(89.006042%, 64.285278%, 35.090637%)" offset="0.320312" />
            <stop stop-opacity="1" stop-color="rgb(89.048767%, 64.686584%, 35.112%)" offset="0.324219" />
            <stop stop-opacity="1" stop-color="rgb(89.091492%, 65.087891%, 35.133362%)" offset="0.328125" />
            <stop stop-opacity="1" stop-color="rgb(89.134216%, 65.489197%, 35.154724%)" offset="0.332031" />
            <stop stop-opacity="1" stop-color="rgb(89.178467%, 65.890503%, 35.177612%)" offset="0.335937" />
            <stop stop-opacity="1" stop-color="rgb(89.221191%, 66.291809%, 35.198975%)" offset="0.339844" />
            <stop stop-opacity="1" stop-color="rgb(89.263916%, 66.693115%, 35.220337%)" offset="0.34375" />
            <stop stop-opacity="1" stop-color="rgb(89.306641%, 67.094421%, 35.241699%)" offset="0.347656" />
            <stop stop-opacity="1" stop-color="rgb(89.349365%, 67.495728%, 35.263062%)" offset="0.351562" />
            <stop stop-opacity="1" stop-color="rgb(89.39209%, 67.897034%, 35.284424%)" offset="0.355469" />
            <stop stop-opacity="1" stop-color="rgb(89.434814%, 68.29834%, 35.305786%)" offset="0.359375" />
            <stop stop-opacity="1" stop-color="rgb(89.477539%, 68.699646%, 35.327148%)" offset="0.363281" />
            <stop stop-opacity="1" stop-color="rgb(89.520264%, 69.100952%, 35.348511%)" offset="0.367187" />
            <stop stop-opacity="1" stop-color="rgb(89.562988%, 69.502258%, 35.369873%)" offset="0.371094" />
            <stop stop-opacity="1" stop-color="rgb(89.607239%, 69.903564%, 35.391235%)" offset="0.375" />
            <stop stop-opacity="1" stop-color="rgb(89.649963%, 70.304871%, 35.412598%)" offset="0.378906" />
            <stop stop-opacity="1" stop-color="rgb(89.692688%, 70.707703%, 35.43396%)" offset="0.382812" />
            <stop stop-opacity="1" stop-color="rgb(89.735413%, 71.109009%, 35.455322%)" offset="0.386719" />
            <stop stop-opacity="1" stop-color="rgb(89.778137%, 71.510315%, 35.47821%)" offset="0.390625" />
            <stop stop-opacity="1" stop-color="rgb(89.820862%, 71.911621%, 35.499573%)" offset="0.394531" />
            <stop stop-opacity="1" stop-color="rgb(89.863586%, 72.312927%, 35.520935%)" offset="0.398438" />
            <stop stop-opacity="1" stop-color="rgb(89.906311%, 72.714233%, 35.542297%)" offset="0.402344" />
            <stop stop-opacity="1" stop-color="rgb(89.950562%, 73.11554%, 35.56366%)" offset="0.40625" />
            <stop stop-opacity="1" stop-color="rgb(89.993286%, 73.516846%, 35.585022%)" offset="0.410156" />
            <stop stop-opacity="1" stop-color="rgb(90.036011%, 73.918152%, 35.606384%)" offset="0.414062" />
            <stop stop-opacity="1" stop-color="rgb(90.078735%, 74.319458%, 35.627747%)" offset="0.417969" />
            <stop stop-opacity="1" stop-color="rgb(90.12146%, 74.720764%, 35.649109%)" offset="0.421875" />
            <stop stop-opacity="1" stop-color="rgb(90.164185%, 75.12207%, 35.670471%)" offset="0.425781" />
            <stop stop-opacity="1" stop-color="rgb(90.206909%, 75.523376%, 35.691833%)" offset="0.429688" />
            <stop stop-opacity="1" stop-color="rgb(90.249634%, 75.924683%, 35.713196%)" offset="0.433594" />
            <stop stop-opacity="1" stop-color="rgb(90.292358%, 76.325989%, 35.736084%)" offset="0.4375" />
            <stop stop-opacity="1" stop-color="rgb(90.335083%, 76.727295%, 35.757446%)" offset="0.441406" />
            <stop stop-opacity="1" stop-color="rgb(90.379333%, 77.130127%, 35.778809%)" offset="0.445312" />
            <stop stop-opacity="1" stop-color="rgb(90.422058%, 77.531433%, 35.800171%)" offset="0.449219" />
            <stop stop-opacity="1" stop-color="rgb(90.464783%, 77.932739%, 35.821533%)" offset="0.453125" />
            <stop stop-opacity="1" stop-color="rgb(90.507507%, 78.334045%, 35.842896%)" offset="0.457031" />
            <stop stop-opacity="1" stop-color="rgb(90.550232%, 78.735352%, 35.864258%)" offset="0.460938" />
            <stop stop-opacity="1" stop-color="rgb(90.592957%, 79.136658%, 35.88562%)" offset="0.464844" />
            <stop stop-opacity="1" stop-color="rgb(90.635681%, 79.537964%, 35.906982%)" offset="0.46875" />
            <stop stop-opacity="1" stop-color="rgb(90.678406%, 79.93927%, 35.928345%)" offset="0.472656" />
            <stop stop-opacity="1" stop-color="rgb(90.72113%, 80.340576%, 35.949707%)" offset="0.476562" />
            <stop stop-opacity="1" stop-color="rgb(90.763855%, 80.741882%, 35.971069%)" offset="0.480469" />
            <stop stop-opacity="1" stop-color="rgb(90.808105%, 81.143188%, 35.993958%)" offset="0.484375" />
            <stop stop-opacity="1" stop-color="rgb(90.85083%, 81.544495%, 36.01532%)" offset="0.488281" />
            <stop stop-opacity="1" stop-color="rgb(90.893555%, 81.945801%, 36.036682%)" offset="0.492188" />
            <stop stop-opacity="1" stop-color="rgb(90.936279%, 82.347107%, 36.058044%)" offset="0.496094" />
            <stop stop-opacity="1" stop-color="rgb(90.979004%, 82.749939%, 36.079407%)" offset="0.5" />
            <stop stop-opacity="1" stop-color="rgb(90.936279%, 82.347107%, 36.058044%)" offset="0.503906" />
            <stop stop-opacity="1" stop-color="rgb(90.893555%, 81.945801%, 36.036682%)" offset="0.507812" />
            <stop stop-opacity="1" stop-color="rgb(90.85083%, 81.544495%, 36.01532%)" offset="0.511719" />
            <stop stop-opacity="1" stop-color="rgb(90.808105%, 81.143188%, 35.993958%)" offset="0.515625" />
            <stop stop-opacity="1" stop-color="rgb(90.765381%, 80.741882%, 35.971069%)" offset="0.519531" />
            <stop stop-opacity="1" stop-color="rgb(90.722656%, 80.340576%, 35.949707%)" offset="0.523437" />
            <stop stop-opacity="1" stop-color="rgb(90.678406%, 79.93927%, 35.928345%)" offset="0.527344" />
            <stop stop-opacity="1" stop-color="rgb(90.635681%, 79.537964%, 35.906982%)" offset="0.53125" />
            <stop stop-opacity="1" stop-color="rgb(90.592957%, 79.136658%, 35.88562%)" offset="0.535156" />
            <stop stop-opacity="1" stop-color="rgb(90.550232%, 78.735352%, 35.864258%)" offset="0.539062" />
            <stop stop-opacity="1" stop-color="rgb(90.507507%, 78.334045%, 35.842896%)" offset="0.542969" />
            <stop stop-opacity="1" stop-color="rgb(90.464783%, 77.932739%, 35.821533%)" offset="0.546875" />
            <stop stop-opacity="1" stop-color="rgb(90.422058%, 77.531433%, 35.800171%)" offset="0.550781" />
            <stop stop-opacity="1" stop-color="rgb(90.379333%, 77.130127%, 35.778809%)" offset="0.554687" />
            <stop stop-opacity="1" stop-color="rgb(90.335083%, 76.727295%, 35.757446%)" offset="0.558594" />
            <stop stop-opacity="1" stop-color="rgb(90.292358%, 76.325989%, 35.736084%)" offset="0.5625" />
            <stop stop-opacity="1" stop-color="rgb(90.249634%, 75.924683%, 35.713196%)" offset="0.566406" />
            <stop stop-opacity="1" stop-color="rgb(90.206909%, 75.523376%, 35.691833%)" offset="0.570312" />
            <stop stop-opacity="1" stop-color="rgb(90.164185%, 75.12207%, 35.670471%)" offset="0.574219" />
            <stop stop-opacity="1" stop-color="rgb(90.12146%, 74.720764%, 35.649109%)" offset="0.578125" />
            <stop stop-opacity="1" stop-color="rgb(90.078735%, 74.319458%, 35.627747%)" offset="0.582031" />
            <stop stop-opacity="1" stop-color="rgb(90.036011%, 73.918152%, 35.606384%)" offset="0.585937" />
            <stop stop-opacity="1" stop-color="rgb(89.993286%, 73.516846%, 35.585022%)" offset="0.589844" />
            <stop stop-opacity="1" stop-color="rgb(89.950562%, 73.11554%, 35.56366%)" offset="0.59375" />
            <stop stop-opacity="1" stop-color="rgb(89.906311%, 72.714233%, 35.542297%)" offset="0.597656" />
            <stop stop-opacity="1" stop-color="rgb(89.863586%, 72.312927%, 35.520935%)" offset="0.601562" />
            <stop stop-opacity="1" stop-color="rgb(89.820862%, 71.911621%, 35.499573%)" offset="0.605469" />
            <stop stop-opacity="1" stop-color="rgb(89.778137%, 71.510315%, 35.47821%)" offset="0.609375" />
            <stop stop-opacity="1" stop-color="rgb(89.735413%, 71.109009%, 35.455322%)" offset="0.613281" />
            <stop stop-opacity="1" stop-color="rgb(89.692688%, 70.707703%, 35.43396%)" offset="0.617187" />
            <stop stop-opacity="1" stop-color="rgb(89.649963%, 70.304871%, 35.412598%)" offset="0.621094" />
            <stop stop-opacity="1" stop-color="rgb(89.607239%, 69.903564%, 35.391235%)" offset="0.625" />
            <stop stop-opacity="1" stop-color="rgb(89.562988%, 69.502258%, 35.369873%)" offset="0.628906" />
            <stop stop-opacity="1" stop-color="rgb(89.520264%, 69.100952%, 35.348511%)" offset="0.632812" />
            <stop stop-opacity="1" stop-color="rgb(89.477539%, 68.699646%, 35.327148%)" offset="0.636719" />
            <stop stop-opacity="1" stop-color="rgb(89.434814%, 68.29834%, 35.305786%)" offset="0.640625" />
            <stop stop-opacity="1" stop-color="rgb(89.39209%, 67.897034%, 35.284424%)" offset="0.644531" />
            <stop stop-opacity="1" stop-color="rgb(89.349365%, 67.495728%, 35.263062%)" offset="0.648437" />
            <stop stop-opacity="1" stop-color="rgb(89.306641%, 67.094421%, 35.241699%)" offset="0.652344" />
            <stop stop-opacity="1" stop-color="rgb(89.263916%, 66.693115%, 35.220337%)" offset="0.65625" />
            <stop stop-opacity="1" stop-color="rgb(89.221191%, 66.291809%, 35.198975%)" offset="0.660156" />
            <stop stop-opacity="1" stop-color="rgb(89.178467%, 65.890503%, 35.177612%)" offset="0.664062" />
            <stop stop-opacity="1" stop-color="rgb(89.134216%, 65.489197%, 35.154724%)" offset="0.667969" />
            <stop stop-opacity="1" stop-color="rgb(89.091492%, 65.087891%, 35.133362%)" offset="0.671875" />
            <stop stop-opacity="1" stop-color="rgb(89.048767%, 64.686584%, 35.112%)" offset="0.675781" />
            <stop stop-opacity="1" stop-color="rgb(89.006042%, 64.285278%, 35.090637%)" offset="0.679687" />
            <stop stop-opacity="1" stop-color="rgb(88.963318%, 63.882446%, 35.069275%)" offset="0.683594" />
            <stop stop-opacity="1" stop-color="rgb(88.920593%, 63.48114%, 35.047913%)" offset="0.6875" />
            <stop stop-opacity="1" stop-color="rgb(88.877869%, 63.079834%, 35.02655%)" offset="0.691406" />
            <stop stop-opacity="1" stop-color="rgb(88.835144%, 62.678528%, 35.005188%)" offset="0.695312" />
            <stop stop-opacity="1" stop-color="rgb(88.790894%, 62.277222%, 34.983826%)" offset="0.699219" />
            <stop stop-opacity="1" stop-color="rgb(88.748169%, 61.875916%, 34.962463%)" offset="0.703125" />
            <stop stop-opacity="1" stop-color="rgb(88.705444%, 61.474609%, 34.941101%)" offset="0.707031" />
            <stop stop-opacity="1" stop-color="rgb(88.66272%, 61.073303%, 34.919739%)" offset="0.710937" />
            <stop stop-opacity="1" stop-color="rgb(88.619995%, 60.671997%, 34.896851%)" offset="0.714844" />
            <stop stop-opacity="1" stop-color="rgb(88.577271%, 60.270691%, 34.875488%)" offset="0.71875" />
            <stop stop-opacity="1" stop-color="rgb(88.534546%, 59.869385%, 34.854126%)" offset="0.722656" />
            <stop stop-opacity="1" stop-color="rgb(88.491821%, 59.468079%, 34.832764%)" offset="0.726562" />
            <stop stop-opacity="1" stop-color="rgb(88.449097%, 59.066772%, 34.811401%)" offset="0.730469" />
            <stop stop-opacity="1" stop-color="rgb(88.406372%, 58.665466%, 34.790039%)" offset="0.734375" />
            <stop stop-opacity="1" stop-color="rgb(88.362122%, 58.262634%, 34.768677%)" offset="0.738281" />
            <stop stop-opacity="1" stop-color="rgb(88.319397%, 57.861328%, 34.747314%)" offset="0.742187" />
            <stop stop-opacity="1" stop-color="rgb(88.276672%, 57.460022%, 34.725952%)" offset="0.746094" />
            <stop stop-opacity="1" stop-color="rgb(88.233948%, 57.058716%, 34.70459%)" offset="0.75" />
            <stop stop-opacity="1" stop-color="rgb(88.191223%, 56.65741%, 34.683228%)" offset="0.753906" />
            <stop stop-opacity="1" stop-color="rgb(88.148499%, 56.256104%, 34.661865%)" offset="0.757812" />
            <stop stop-opacity="1" stop-color="rgb(88.105774%, 55.854797%, 34.638977%)" offset="0.761719" />
            <stop stop-opacity="1" stop-color="rgb(88.063049%, 55.453491%, 34.617615%)" offset="0.765625" />
            <stop stop-opacity="1" stop-color="rgb(88.020325%, 55.052185%, 34.596252%)" offset="0.769531" />
            <stop stop-opacity="1" stop-color="rgb(87.9776%, 54.650879%, 34.57489%)" offset="0.773438" />
            <stop stop-opacity="1" stop-color="rgb(87.93335%, 54.249573%, 34.553528%)" offset="0.777344" />
            <stop stop-opacity="1" stop-color="rgb(87.890625%, 53.848267%, 34.532166%)" offset="0.78125" />
            <stop stop-opacity="1" stop-color="rgb(87.8479%, 53.44696%, 34.510803%)" offset="0.785156" />
            <stop stop-opacity="1" stop-color="rgb(87.805176%, 53.045654%, 34.489441%)" offset="0.789062" />
            <stop stop-opacity="1" stop-color="rgb(87.762451%, 52.644348%, 34.468079%)" offset="0.792969" />
            <stop stop-opacity="1" stop-color="rgb(87.719727%, 52.243042%, 34.446716%)" offset="0.796875" />
            <stop stop-opacity="1" stop-color="rgb(87.677002%, 51.84021%, 34.425354%)" offset="0.800781" />
            <stop stop-opacity="1" stop-color="rgb(87.634277%, 51.438904%, 34.403992%)" offset="0.804688" />
            <stop stop-opacity="1" stop-color="rgb(87.590027%, 51.037598%, 34.381104%)" offset="0.808594" />
            <stop stop-opacity="1" stop-color="rgb(87.547302%, 50.636292%, 34.359741%)" offset="0.8125" />
            <stop stop-opacity="1" stop-color="rgb(87.504578%, 50.234985%, 34.338379%)" offset="0.816406" />
            <stop stop-opacity="1" stop-color="rgb(87.461853%, 49.833679%, 34.317017%)" offset="0.820312" />
            <stop stop-opacity="1" stop-color="rgb(87.419128%, 49.432373%, 34.295654%)" offset="0.824219" />
            <stop stop-opacity="1" stop-color="rgb(87.376404%, 49.031067%, 34.274292%)" offset="0.828125" />
            <stop stop-opacity="1" stop-color="rgb(87.333679%, 48.629761%, 34.25293%)" offset="0.832031" />
            <stop stop-opacity="1" stop-color="rgb(87.290955%, 48.228455%, 34.231567%)" offset="0.835938" />
            <stop stop-opacity="1" stop-color="rgb(87.24823%, 47.827148%, 34.210205%)" offset="0.839844" />
            <stop stop-opacity="1" stop-color="rgb(87.205505%, 47.425842%, 34.188843%)" offset="0.84375" />
            <stop stop-opacity="1" stop-color="rgb(87.161255%, 47.024536%, 34.16748%)" offset="0.847656" />
            <stop stop-opacity="1" stop-color="rgb(87.11853%, 46.62323%, 34.146118%)" offset="0.851562" />
            <stop stop-opacity="1" stop-color="rgb(87.075806%, 46.221924%, 34.124756%)" offset="0.855469" />
            <stop stop-opacity="1" stop-color="rgb(87.033081%, 45.820618%, 34.103394%)" offset="0.859375" />
            <stop stop-opacity="1" stop-color="rgb(86.990356%, 45.417786%, 34.080505%)" offset="0.863281" />
            <stop stop-opacity="1" stop-color="rgb(86.947632%, 45.016479%, 34.059143%)" offset="0.867188" />
            <stop stop-opacity="1" stop-color="rgb(86.904907%, 44.615173%, 34.037781%)" offset="0.871094" />
            <stop stop-opacity="1" stop-color="rgb(86.862183%, 44.213867%, 34.016418%)" offset="0.875" />
            <stop stop-opacity="1" stop-color="rgb(86.817932%, 43.812561%, 33.995056%)" offset="0.878906" />
            <stop stop-opacity="1" stop-color="rgb(86.775208%, 43.411255%, 33.973694%)" offset="0.882812" />
            <stop stop-opacity="1" stop-color="rgb(86.732483%, 43.009949%, 33.952332%)" offset="0.886719" />
            <stop stop-opacity="1" stop-color="rgb(86.689758%, 42.608643%, 33.930969%)" offset="0.890625" />
            <stop stop-opacity="1" stop-color="rgb(86.647034%, 42.207336%, 33.909607%)" offset="0.894531" />
            <stop stop-opacity="1" stop-color="rgb(86.604309%, 41.80603%, 33.888245%)" offset="0.898438" />
            <stop stop-opacity="1" stop-color="rgb(86.561584%, 41.404724%, 33.866882%)" offset="0.902344" />
            <stop stop-opacity="1" stop-color="rgb(86.51886%, 41.003418%, 33.84552%)" offset="0.90625" />
            <stop stop-opacity="1" stop-color="rgb(86.476135%, 40.602112%, 33.822632%)" offset="0.910156" />
            <stop stop-opacity="1" stop-color="rgb(86.433411%, 40.200806%, 33.80127%)" offset="0.914062" />
            <stop stop-opacity="1" stop-color="rgb(86.38916%, 39.797974%, 33.779907%)" offset="0.917969" />
            <stop stop-opacity="1" stop-color="rgb(86.346436%, 39.396667%, 33.758545%)" offset="0.921875" />
            <stop stop-opacity="1" stop-color="rgb(86.303711%, 38.995361%, 33.737183%)" offset="0.925781" />
            <stop stop-opacity="1" stop-color="rgb(86.260986%, 38.594055%, 33.71582%)" offset="0.929688" />
            <stop stop-opacity="1" stop-color="rgb(86.218262%, 38.192749%, 33.694458%)" offset="0.933594" />
            <stop stop-opacity="1" stop-color="rgb(86.175537%, 37.791443%, 33.673096%)" offset="0.9375" />
            <stop stop-opacity="1" stop-color="rgb(86.132812%, 37.390137%, 33.651733%)" offset="0.941406" />
            <stop stop-opacity="1" stop-color="rgb(86.090088%, 36.988831%, 33.630371%)" offset="0.945312" />
            <stop stop-opacity="1" stop-color="rgb(86.047363%, 36.587524%, 33.609009%)" offset="0.949219" />
            <stop stop-opacity="1" stop-color="rgb(86.004639%, 36.186218%, 33.587646%)" offset="0.953125" />
            <stop stop-opacity="1" stop-color="rgb(85.960388%, 35.784912%, 33.564758%)" offset="0.957031" />
            <stop stop-opacity="1" stop-color="rgb(85.917664%, 35.383606%, 33.543396%)" offset="0.960938" />
            <stop stop-opacity="1" stop-color="rgb(85.874939%, 34.9823%, 33.522034%)" offset="0.964844" />
            <stop stop-opacity="1" stop-color="rgb(85.832214%, 34.580994%, 33.500671%)" offset="0.96875" />
            <stop stop-opacity="1" stop-color="rgb(85.78949%, 34.179688%, 33.479309%)" offset="0.972656" />
            <stop stop-opacity="1" stop-color="rgb(85.746765%, 33.778381%, 33.457947%)" offset="0.976562" />
            <stop stop-opacity="1" stop-color="rgb(85.704041%, 33.375549%, 33.436584%)" offset="0.980469" />
            <stop stop-opacity="1" stop-color="rgb(85.661316%, 32.974243%, 33.415222%)" offset="0.984375" />
            <stop stop-opacity="1" stop-color="rgb(85.617065%, 32.572937%, 33.39386%)" offset="0.988281" />
            <stop stop-opacity="1" stop-color="rgb(85.574341%, 32.171631%, 33.372498%)" offset="0.992188" />
            <stop stop-opacity="1" stop-color="rgb(85.531616%, 31.770325%, 33.351135%)" offset="0.996094" />
            <stop stop-opacity="1" stop-color="rgb(85.488892%, 31.369019%, 33.329773%)" offset="1" />
        </linearGradient>
        <clipPath id="24a319a6df">
            <path d="M 246 107.167969 L 400 107.167969 L 400 404.917969 L 246 404.917969 Z M 246 107.167969 "
                clip-rule="nonzero" />
        </clipPath>
        <clipPath id="d3c4013da9">
            <path
                d="M 197.179688 140.917969 L 197.179688 371.25 C 197.179688 389.890625 212.289062 405 230.929688 405 L 579.183594 405 C 597.824219 405 612.933594 389.890625 612.933594 371.25 L 612.933594 140.917969 C 612.933594 122.277344 597.824219 107.167969 579.183594 107.167969 L 230.929688 107.167969 C 212.289062 107.167969 197.179688 122.277344 197.179688 140.917969 Z M 197.179688 140.917969 "
                clip-rule="nonzero" />
        </clipPath>
        <clipPath id="4cf3dc283d">
            <path d="M 410 107.167969 L 564 107.167969 L 564 404.917969 L 410 404.917969 Z M 410 107.167969 "
                clip-rule="nonzero" />
        </clipPath>
        <clipPath id="3be1101d36">
            <path
                d="M 197.179688 140.917969 L 197.179688 371.25 C 197.179688 389.890625 212.289062 405 230.929688 405 L 579.183594 405 C 597.824219 405 612.933594 389.890625 612.933594 371.25 L 612.933594 140.917969 C 612.933594 122.277344 597.824219 107.167969 579.183594 107.167969 L 230.929688 107.167969 C 212.289062 107.167969 197.179688 122.277344 197.179688 140.917969 Z M 197.179688 140.917969 "
                clip-rule="nonzero" />
        </clipPath>
        <clipPath id="2db2579a00">
            <path d="M 197.179688 163 L 362 163 L 362 403 L 197.179688 403 Z M 197.179688 163 " clip-rule="nonzero" />
        </clipPath>
        <clipPath id="e32f4d6311">
            <path
                d="M 197.179688 140.917969 L 197.179688 371.25 C 197.179688 389.890625 212.289062 405 230.929688 405 L 579.183594 405 C 597.824219 405 612.933594 389.890625 612.933594 371.25 L 612.933594 140.917969 C 612.933594 122.277344 597.824219 107.167969 579.183594 107.167969 L 230.929688 107.167969 C 212.289062 107.167969 197.179688 122.277344 197.179688 140.917969 Z M 197.179688 140.917969 "
                clip-rule="nonzero" />
        </clipPath>
        <clipPath id="5b3cd499ce">
            <path d="M 448 163 L 612.679688 163 L 612.679688 403 L 448 403 Z M 448 163 " clip-rule="nonzero" />
        </clipPath>
        <clipPath id="3f6fca7b30">
            <path
                d="M 197.179688 140.917969 L 197.179688 371.25 C 197.179688 389.890625 212.289062 405 230.929688 405 L 579.183594 405 C 597.824219 405 612.933594 389.890625 612.933594 371.25 L 612.933594 140.917969 C 612.933594 122.277344 597.824219 107.167969 579.183594 107.167969 L 230.929688 107.167969 C 212.289062 107.167969 197.179688 122.277344 197.179688 140.917969 Z M 197.179688 140.917969 "
                clip-rule="nonzero" />
        </clipPath>
        <clipPath id="e31f066cc8">
            <rect x="0" width="488" y="0" height="232" />
        </clipPath>
    </defs>
    <rect x="-81" width="972" fill="#ffffff" y="-80.999999" height="971.999992" fill-opacity="1" />
    <rect x="-81" fill="url(#8b6d2b3ccd)" width="972" y="-80.999999" height="971.999992" />
    <g clip-path="url(#24a319a6df)">
        <g clip-path="url(#d3c4013da9)">
            <path fill="#FFFFFF" stroke-width="7" stroke="#FFFFFF" stroke-opacity="1"
                d="M 250.773438 353.921875 C 263.121094 354.660156 286.105469 356.988281 312.203125 364.179688 C 338.308594 371.367188 367.496094 383.429688 392.367188 403.464844 C 393.757812 404.585938 395.65625 404.804688 397.265625 404.035156 C 398.875 403.265625 399.894531 401.648438 399.894531 399.863281 L 399.894531 157.855469 C 399.894531 156.402344 399.214844 155.035156 398.054688 154.160156 C 391.335938 149.097656 375.222656 138.058594 350.480469 127.953125 C 325.738281 117.847656 292.359375 108.683594 251.199219 107.390625 C 249.945312 107.351562 248.734375 107.820312 247.832031 108.695312 C 246.933594 109.566406 246.425781 110.761719 246.425781 112.015625 L 246.425781 349.304688 C 246.425781 351.746094 248.335938 353.773438 250.777344 353.921875 Z M 390.644531 160.1875 L 390.644531 390.546875 C 366.246094 372.875 339.0625 361.988281 314.660156 355.261719 C 290.523438 348.613281 269.09375 346.011719 255.675781 344.988281 L 255.675781 116.847656 C 293.414062 118.628906 324.078125 127.167969 346.980469 136.519531 C 368.753906 145.410156 383.515625 155.023438 390.644531 160.1875 Z M 390.644531 160.1875 "
                fill-opacity="1" fill-rule="nonzero" />
        </g>
    </g>
    <g clip-path="url(#4cf3dc283d)">
        <g clip-path="url(#3be1101d36)">
            <path fill="#FFFFFF" stroke-width="7" stroke="#FFFFFF" stroke-opacity="1"
                d="M 412.839844 404.023438 C 414.449219 404.792969 416.347656 404.574219 417.738281 403.453125 C 442.609375 383.417969 471.796875 371.359375 497.902344 364.175781 C 524 356.984375 546.984375 354.664062 559.332031 353.921875 C 561.769531 353.777344 563.679688 351.75 563.679688 349.304688 L 563.679688 112.015625 C 563.679688 110.761719 563.171875 109.566406 562.273438 108.695312 C 561.375 107.824219 560.164062 107.351562 558.910156 107.390625 C 517.574219 108.675781 484.171875 117.832031 459.464844 127.933594 C 434.753906 138.039062 418.722656 149.074219 412.039062 154.152344 C 410.882812 155.03125 410.210938 156.382812 410.210938 157.835938 L 410.210938 399.851562 C 410.210938 401.636719 411.230469 403.253906 412.839844 404.023438 Z M 462.964844 136.5 C 485.832031 127.152344 516.519531 118.617188 554.429688 116.84375 L 554.429688 344.984375 C 541.011719 346.007812 519.585938 348.609375 495.445312 355.253906 C 471.042969 361.980469 443.859375 372.859375 419.460938 390.535156 L 419.460938 160.160156 C 426.542969 154.992188 441.222656 145.386719 462.964844 136.5 Z M 462.964844 136.5 "
                fill-opacity="1" fill-rule="nonzero" />
        </g>
    </g>
    <g clip-path="url(#2db2579a00)">
        <g clip-path="url(#e32f4d6311)">
            <path fill="#FFFFFF" stroke-width="7" stroke="#FFFFFF" stroke-opacity="1"
                d="M 355.875 402.515625 C 358.132812 403.035156 360.425781 401.8125 361.246094 399.644531 C 362.066406 397.476562 361.160156 395.042969 359.121094 393.941406 C 331.695312 379.101562 302.515625 371.640625 280.058594 367.828125 C 268.828125 365.925781 259.277344 364.945312 252.460938 364.433594 C 249.054688 364.179688 246.332031 364.042969 244.425781 363.972656 C 243.472656 363.9375 242.726562 363.917969 242.199219 363.90625 C 241.933594 363.898438 241.726562 363.894531 241.574219 363.894531 C 241.414062 363.890625 241.335938 363.890625 241.265625 363.890625 L 236.109375 363.890625 L 236.109375 168.9375 C 236.109375 166.535156 234.273438 164.535156 231.882812 164.328125 C 228.261719 164.015625 224.394531 163.890625 220.507812 163.890625 C 213.757812 163.890625 206.957031 164.265625 201.425781 164.710938 C 199.019531 164.902344 197.171875 166.90625 197.171875 169.320312 L 197.171875 387.5625 C 197.171875 388.886719 197.738281 390.140625 198.722656 391.019531 C 199.710938 391.898438 201.023438 392.3125 202.335938 392.15625 C 217.605469 390.371094 232.679688 389.601562 247.300781 389.601562 C 289.167969 389.601562 327.347656 395.902344 355.875 402.511719 Z M 226.859375 173.28125 L 226.859375 368.515625 C 226.859375 369.734375 227.351562 370.925781 228.210938 371.789062 C 229.074219 372.648438 230.265625 373.140625 231.484375 373.140625 L 241.269531 373.140625 C 241.574219 373.144531 245.601562 373.1875 252.238281 373.695312 C 262.207031 374.457031 278.101562 376.269531 296.367188 380.542969 C 302.003906 381.859375 307.863281 383.410156 313.84375 385.238281 C 293.542969 382.332031 271.035156 380.355469 247.300781 380.351562 C 234 380.351562 220.316406 380.976562 206.421875 382.40625 L 206.421875 173.625 C 210.820312 173.34375 215.714844 173.144531 220.507812 173.144531 C 222.667969 173.144531 224.796875 173.191406 226.855469 173.28125 Z M 226.859375 173.28125 "
                fill-opacity="1" fill-rule="nonzero" />
        </g>
    </g>
    <g clip-path="url(#5b3cd499ce)">
        <g clip-path="url(#3f6fca7b30)">
            <path fill="#FFFFFF" stroke-width="7" stroke="#FFFFFF" stroke-opacity="1"
                d="M 608.679688 164.710938 C 603.148438 164.265625 596.339844 163.890625 589.589844 163.890625 C 585.707031 163.890625 581.839844 164.015625 578.222656 164.328125 C 575.832031 164.535156 573.996094 166.535156 573.996094 168.933594 L 573.996094 363.882812 L 568.84375 363.890625 L 568.851562 363.890625 C 568.78125 363.890625 568.699219 363.890625 568.542969 363.894531 C 566.175781 363.925781 550.035156 364.296875 527.84375 368.21875 C 505.65625 372.144531 477.414062 379.597656 450.859375 393.960938 C 448.820312 395.066406 447.914062 397.503906 448.734375 399.667969 C 449.554688 401.835938 451.847656 403.058594 454.105469 402.535156 C 482.636719 395.917969 520.851562 389.601562 562.785156 389.601562 C 577.410156 389.601562 592.492188 390.371094 607.769531 392.15625 C 609.082031 392.308594 610.394531 391.894531 611.382812 391.015625 C 612.371094 390.136719 612.933594 388.882812 612.933594 387.5625 L 612.933594 169.320312 C 612.933594 166.90625 611.085938 164.902344 608.679688 164.707031 Z M 496.300781 385.226562 C 508.898438 381.394531 520.96875 378.757812 531.519531 376.96875 C 542.433594 375.121094 551.722656 374.160156 558.3125 373.667969 C 561.605469 373.417969 564.226562 373.289062 566.03125 373.21875 C 566.933594 373.183594 567.636719 373.164062 568.117188 373.152344 C 568.355469 373.148438 568.539062 373.144531 568.667969 373.144531 L 568.8125 373.140625 L 568.855469 373.140625 L 578.628906 373.128906 C 581.183594 373.125 583.25 371.058594 583.25 368.503906 L 583.25 173.28125 C 585.304688 173.1875 587.429688 173.140625 589.589844 173.140625 C 594.382812 173.140625 599.285156 173.34375 603.679688 173.625 L 603.679688 382.40625 C 589.78125 380.980469 576.089844 380.351562 562.785156 380.351562 C 539.070312 380.351562 516.582031 382.328125 496.300781 385.230469 Z M 496.300781 385.226562 "
                fill-opacity="1" fill-rule="nonzero" />
        </g>
    </g>
    <g transform="matrix(1, 0, 0, 1, 161, 381)">
        <g clip-path="url(#e31f066cc8)">
            <g fill="#f9fafd" fill-opacity="1">
                <g transform="translate(0.830915, 186.724221)">
                    <g>
                        <path
                            d="M 78.65625 -149.125 C 85.9375 -149.125 92.960938 -148.128906 99.734375 -146.140625 C 106.515625 -144.160156 112.867188 -141.347656 118.796875 -137.703125 L 109.703125 -121.421875 C 105.179688 -124.585938 100.273438 -126.945312 94.984375 -128.5 C 89.691406 -130.050781 84.25 -130.828125 78.65625 -130.828125 C 72.382812 -130.828125 66.398438 -129.863281 60.703125 -127.9375 C 55.015625 -126.019531 49.796875 -123.328125 45.046875 -119.859375 C 40.296875 -116.390625 36.164062 -112.296875 32.65625 -107.578125 C 29.15625 -102.859375 26.441406 -97.648438 24.515625 -91.953125 C 22.597656 -86.253906 21.640625 -80.273438 21.640625 -74.015625 C 21.640625 -67.742188 22.597656 -61.757812 24.515625 -56.0625 C 26.441406 -50.363281 29.15625 -45.15625 32.65625 -40.4375 C 36.164062 -35.71875 40.296875 -31.625 45.046875 -28.15625 C 49.796875 -24.6875 55.015625 -21.988281 60.703125 -20.0625 C 66.398438 -18.144531 72.382812 -17.1875 78.65625 -17.1875 C 84.25 -17.1875 89.691406 -17.976562 94.984375 -19.5625 C 100.273438 -21.144531 105.179688 -23.488281 109.703125 -26.59375 L 118.796875 -10.515625 C 112.867188 -6.804688 106.515625 -3.941406 99.734375 -1.921875 C 92.960938 0.0976562 85.9375 1.109375 78.65625 1.109375 C 70.300781 1.109375 62.347656 -0.148438 54.796875 -2.671875 C 47.242188 -5.203125 40.332031 -8.757812 34.0625 -13.34375 C 27.800781 -17.925781 22.378906 -23.332031 17.796875 -29.5625 C 13.210938 -35.800781 9.65625 -42.675781 7.125 -50.1875 C 4.601562 -57.707031 3.34375 -65.648438 3.34375 -74.015625 C 3.34375 -82.296875 4.601562 -90.191406 7.125 -97.703125 C 9.65625 -105.222656 13.210938 -112.117188 17.796875 -118.390625 C 22.378906 -124.660156 27.800781 -130.085938 34.0625 -134.671875 C 40.332031 -139.253906 47.242188 -142.804688 54.796875 -145.328125 C 62.347656 -147.859375 70.300781 -149.125 78.65625 -149.125 Z M 78.65625 -128.90625 C 84.1875 -128.90625 89.492188 -128.113281 94.578125 -126.53125 C 99.671875 -124.945312 104.34375 -122.707031 108.59375 -119.8125 L 99.890625 -103.734375 C 96.785156 -105.890625 93.460938 -107.570312 89.921875 -108.78125 C 86.390625 -110 82.632812 -110.609375 78.65625 -110.609375 C 73.53125 -110.609375 68.726562 -109.664062 64.25 -107.78125 C 59.769531 -105.894531 55.859375 -103.28125 52.515625 -99.9375 C 49.179688 -96.601562 46.570312 -92.726562 44.6875 -88.3125 C 42.800781 -83.894531 41.859375 -79.128906 41.859375 -74.015625 C 41.859375 -68.890625 42.800781 -64.117188 44.6875 -59.703125 C 46.570312 -55.285156 49.179688 -51.410156 52.515625 -48.078125 C 55.859375 -44.742188 59.769531 -42.128906 64.25 -40.234375 C 68.726562 -38.347656 73.53125 -37.40625 78.65625 -37.40625 C 82.632812 -37.40625 86.390625 -37.992188 89.921875 -39.171875 C 93.460938 -40.359375 96.785156 -42.0625 99.890625 -44.28125 L 108.59375 -28.203125 C 104.34375 -25.304688 99.671875 -23.066406 94.578125 -21.484375 C 89.492188 -19.898438 84.1875 -19.109375 78.65625 -19.109375 C 71.039062 -19.109375 63.910156 -20.539062 57.265625 -23.40625 C 50.628906 -26.269531 44.785156 -30.210938 39.734375 -35.234375 C 34.679688 -40.253906 30.722656 -46.082031 27.859375 -52.71875 C 24.992188 -59.363281 23.5625 -66.460938 23.5625 -74.015625 C 23.5625 -81.554688 24.992188 -88.628906 27.859375 -95.234375 C 30.722656 -101.847656 34.679688 -107.679688 39.734375 -112.734375 C 44.785156 -117.785156 50.628906 -121.742188 57.265625 -124.609375 C 63.910156 -127.472656 71.039062 -128.90625 78.65625 -128.90625 Z M 78.65625 -128.90625 " />
                    </g>
                </g>
                <g transform="translate(125.08516, 186.724221)">
                    <g>
                        <path
                            d="M 78.65625 -149.125 C 85.9375 -149.125 92.960938 -148.128906 99.734375 -146.140625 C 106.515625 -144.160156 112.867188 -141.347656 118.796875 -137.703125 L 109.703125 -121.421875 C 105.179688 -124.585938 100.273438 -126.945312 94.984375 -128.5 C 89.691406 -130.050781 84.25 -130.828125 78.65625 -130.828125 C 72.382812 -130.828125 66.398438 -129.863281 60.703125 -127.9375 C 55.015625 -126.019531 49.796875 -123.328125 45.046875 -119.859375 C 40.296875 -116.390625 36.164062 -112.296875 32.65625 -107.578125 C 29.15625 -102.859375 26.441406 -97.648438 24.515625 -91.953125 C 22.597656 -86.253906 21.640625 -80.273438 21.640625 -74.015625 C 21.640625 -67.742188 22.597656 -61.757812 24.515625 -56.0625 C 26.441406 -50.363281 29.15625 -45.15625 32.65625 -40.4375 C 36.164062 -35.71875 40.296875 -31.625 45.046875 -28.15625 C 49.796875 -24.6875 55.015625 -21.988281 60.703125 -20.0625 C 66.398438 -18.144531 72.382812 -17.1875 78.65625 -17.1875 C 84.25 -17.1875 89.691406 -17.976562 94.984375 -19.5625 C 100.273438 -21.144531 105.179688 -23.488281 109.703125 -26.59375 L 118.796875 -10.515625 C 112.867188 -6.804688 106.515625 -3.941406 99.734375 -1.921875 C 92.960938 0.0976562 85.9375 1.109375 78.65625 1.109375 C 70.300781 1.109375 62.347656 -0.148438 54.796875 -2.671875 C 47.242188 -5.203125 40.332031 -8.757812 34.0625 -13.34375 C 27.800781 -17.925781 22.378906 -23.332031 17.796875 -29.5625 C 13.210938 -35.800781 9.65625 -42.675781 7.125 -50.1875 C 4.601562 -57.707031 3.34375 -65.648438 3.34375 -74.015625 C 3.34375 -82.296875 4.601562 -90.191406 7.125 -97.703125 C 9.65625 -105.222656 13.210938 -112.117188 17.796875 -118.390625 C 22.378906 -124.660156 27.800781 -130.085938 34.0625 -134.671875 C 40.332031 -139.253906 47.242188 -142.804688 54.796875 -145.328125 C 62.347656 -147.859375 70.300781 -149.125 78.65625 -149.125 Z M 78.65625 -128.90625 C 84.1875 -128.90625 89.492188 -128.113281 94.578125 -126.53125 C 99.671875 -124.945312 104.34375 -122.707031 108.59375 -119.8125 L 99.890625 -103.734375 C 96.785156 -105.890625 93.460938 -107.570312 89.921875 -108.78125 C 86.390625 -110 82.632812 -110.609375 78.65625 -110.609375 C 73.53125 -110.609375 68.726562 -109.664062 64.25 -107.78125 C 59.769531 -105.894531 55.859375 -103.28125 52.515625 -99.9375 C 49.179688 -96.601562 46.570312 -92.726562 44.6875 -88.3125 C 42.800781 -83.894531 41.859375 -79.128906 41.859375 -74.015625 C 41.859375 -68.890625 42.800781 -64.117188 44.6875 -59.703125 C 46.570312 -55.285156 49.179688 -51.410156 52.515625 -48.078125 C 55.859375 -44.742188 59.769531 -42.128906 64.25 -40.234375 C 68.726562 -38.347656 73.53125 -37.40625 78.65625 -37.40625 C 82.632812 -37.40625 86.390625 -37.992188 89.921875 -39.171875 C 93.460938 -40.359375 96.785156 -42.0625 99.890625 -44.28125 L 108.59375 -28.203125 C 104.34375 -25.304688 99.671875 -23.066406 94.578125 -21.484375 C 89.492188 -19.898438 84.1875 -19.109375 78.65625 -19.109375 C 71.039062 -19.109375 63.910156 -20.539062 57.265625 -23.40625 C 50.628906 -26.269531 44.785156 -30.210938 39.734375 -35.234375 C 34.679688 -40.253906 30.722656 -46.082031 27.859375 -52.71875 C 24.992188 -59.363281 23.5625 -66.460938 23.5625 -74.015625 C 23.5625 -81.554688 24.992188 -88.628906 27.859375 -95.234375 C 30.722656 -101.847656 34.679688 -107.679688 39.734375 -112.734375 C 44.785156 -117.785156 50.628906 -121.742188 57.265625 -124.609375 C 63.910156 -127.472656 71.039062 -128.90625 78.65625 -128.90625 Z M 78.65625 -128.90625 " />
                    </g>
                </g>
                <g transform="translate(249.339405, 186.724221)">
                    <g>
                        <path
                            d="M 48.328125 -131.9375 C 42.929688 -132.007812 38.296875 -131 34.421875 -128.90625 C 30.546875 -126.820312 27.476562 -124.023438 25.21875 -120.515625 C 22.96875 -117.015625 21.488281 -113.15625 20.78125 -108.9375 C 20.070312 -104.726562 20.171875 -100.5 21.078125 -96.25 C 21.984375 -92 23.664062 -88.101562 26.125 -84.5625 C 28.59375 -81.03125 31.878906 -78.164062 35.984375 -75.96875 C 40.097656 -73.78125 44.988281 -72.6875 50.65625 -72.6875 L 69.25 -72.484375 C 75.789062 -72.484375 81.21875 -71.238281 85.53125 -68.75 C 89.84375 -66.257812 93.09375 -63.023438 95.28125 -59.046875 C 97.476562 -55.066406 98.578125 -50.820312 98.578125 -46.3125 C 98.578125 -41.050781 97.566406 -36.265625 95.546875 -31.953125 C 93.523438 -27.640625 90.554688 -24.203125 86.640625 -21.640625 C 82.734375 -19.078125 77.984375 -17.796875 72.390625 -17.796875 L 54.59375 -18 C 49.738281 -18.132812 45.035156 -19.039062 40.484375 -20.71875 C 35.941406 -22.40625 32.082031 -24.953125 28.90625 -28.359375 C 25.738281 -31.765625 23.753906 -35.992188 22.953125 -41.046875 L 40.75 -44.390625 C 41.488281 -42.097656 42.867188 -40.160156 44.890625 -38.578125 C 46.910156 -36.992188 49.171875 -36.097656 51.671875 -35.890625 L 72.1875 -35.890625 C 74.476562 -35.890625 76.3125 -36.546875 77.6875 -37.859375 C 79.070312 -39.171875 79.984375 -40.804688 80.421875 -42.765625 C 80.867188 -44.722656 80.851562 -46.675781 80.375 -48.625 C 79.90625 -50.582031 78.992188 -52.21875 77.640625 -53.53125 C 76.296875 -54.84375 74.476562 -55.5 72.1875 -55.5 L 53.390625 -55.5 C 44.828125 -55.5 37.328125 -56.8125 30.890625 -59.4375 C 24.453125 -62.070312 19.109375 -65.613281 14.859375 -70.0625 C 10.617188 -74.507812 7.414062 -79.492188 5.25 -85.015625 C 3.09375 -90.546875 1.945312 -96.273438 1.8125 -102.203125 C 1.6875 -108.140625 2.582031 -113.867188 4.5 -119.390625 C 6.414062 -124.921875 9.296875 -129.910156 13.140625 -134.359375 C 16.984375 -138.816406 21.800781 -142.359375 27.59375 -144.984375 C 33.394531 -147.609375 40.101562 -148.921875 47.71875 -148.921875 L 67.734375 -148.921875 C 73.535156 -148.921875 79.148438 -148.007812 84.578125 -146.1875 C 90.003906 -144.375 94.988281 -141.765625 99.53125 -138.359375 C 104.082031 -134.953125 107.875 -130.90625 110.90625 -126.21875 C 113.945312 -121.539062 115.972656 -116.335938 116.984375 -110.609375 L 100.296875 -107.671875 C 99.753906 -111.722656 98.4375 -115.265625 96.34375 -118.296875 C 94.257812 -121.328125 91.632812 -123.851562 88.46875 -125.875 C 85.300781 -127.894531 81.8125 -129.410156 78 -130.421875 C 74.195312 -131.429688 70.304688 -131.9375 66.328125 -131.9375 Z M 72.390625 -15.765625 C 77.441406 -15.765625 81.753906 -16.570312 85.328125 -18.1875 C 88.898438 -19.8125 91.796875 -22.054688 94.015625 -24.921875 C 96.242188 -27.785156 97.878906 -31.050781 98.921875 -34.71875 C 99.972656 -38.394531 100.5 -42.257812 100.5 -46.3125 C 100.5 -49.882812 99.875 -53.351562 98.625 -56.71875 C 97.375 -60.09375 95.46875 -63.125 92.90625 -65.8125 C 90.351562 -68.507812 87.101562 -70.648438 83.15625 -72.234375 C 79.21875 -73.816406 74.582031 -74.609375 69.25 -74.609375 L 50.34375 -74.609375 C 45.09375 -74.679688 40.59375 -75.726562 36.84375 -77.75 C 33.101562 -79.769531 30.085938 -82.445312 27.796875 -85.78125 C 25.503906 -89.125 23.9375 -92.765625 23.09375 -96.703125 C 22.257812 -100.648438 22.160156 -104.59375 22.796875 -108.53125 C 23.441406 -112.476562 24.804688 -116.082031 26.890625 -119.34375 C 28.984375 -122.613281 31.796875 -125.226562 35.328125 -127.1875 C 38.867188 -129.144531 43.132812 -130.125 48.125 -130.125 L 66.53125 -130.125 C 71.445312 -130.125 76.160156 -129.265625 80.671875 -127.546875 C 85.191406 -125.828125 89.035156 -123.265625 92.203125 -119.859375 C 95.367188 -116.453125 97.289062 -112.1875 97.96875 -107.0625 L 80.375 -103.734375 C 79.632812 -106.023438 78.269531 -107.976562 76.28125 -109.59375 C 74.289062 -111.21875 72.015625 -112.0625 69.453125 -112.125 L 48.9375 -112.125 C 46.644531 -112.125 44.804688 -111.46875 43.421875 -110.15625 C 42.046875 -108.84375 41.117188 -107.222656 40.640625 -105.296875 C 40.171875 -103.378906 40.171875 -101.441406 40.640625 -99.484375 C 41.117188 -97.535156 42.046875 -95.898438 43.421875 -94.578125 C 44.804688 -93.265625 46.644531 -92.609375 48.9375 -92.609375 L 67.734375 -92.609375 C 76.023438 -92.609375 83.304688 -91.3125 89.578125 -88.71875 C 95.847656 -86.125 101.125 -82.617188 105.40625 -78.203125 C 109.6875 -73.785156 112.921875 -68.8125 115.109375 -63.28125 C 117.296875 -57.757812 118.425781 -52.101562 118.5 -46.3125 C 118.5625 -40.445312 117.53125 -34.710938 115.40625 -29.109375 C 113.28125 -23.515625 110.113281 -18.457031 105.90625 -13.9375 C 101.695312 -9.425781 96.441406 -5.835938 90.140625 -3.171875 C 83.835938 -0.515625 76.539062 0.8125 68.25 0.8125 L 53.390625 0.8125 C 47.660156 0.8125 42.0625 -0.0976562 36.59375 -1.921875 C 31.132812 -3.742188 26.128906 -6.351562 21.578125 -9.75 C 17.035156 -13.15625 13.195312 -17.203125 10.0625 -21.890625 C 6.925781 -26.578125 4.816406 -31.785156 3.734375 -37.515625 L 20.828125 -40.4375 C 21.367188 -36.394531 22.679688 -32.835938 24.765625 -29.765625 C 26.859375 -26.703125 29.488281 -24.140625 32.65625 -22.078125 C 35.820312 -20.023438 39.304688 -18.492188 43.109375 -17.484375 C 46.921875 -16.472656 50.816406 -15.96875 54.796875 -15.96875 Z M 72.390625 -15.765625 " />
                    </g>
                </g>
                <g transform="translate(372.380426, 186.724221)">
                    <g>
                        <path
                            d="M 4.046875 -96.5625 C 4.046875 -103.632812 5.390625 -110.285156 8.078125 -116.515625 C 10.773438 -122.753906 14.484375 -128.234375 19.203125 -132.953125 C 23.921875 -137.671875 29.378906 -141.378906 35.578125 -144.078125 C 41.785156 -146.773438 48.394531 -148.125 55.40625 -148.125 L 107.671875 -148.125 L 107.671875 -130.625 L 55.40625 -130.625 C 50.882812 -130.625 46.601562 -129.75 42.5625 -128 C 38.519531 -126.25 34.945312 -123.835938 31.84375 -120.765625 C 28.75 -117.703125 26.320312 -114.144531 24.5625 -110.09375 C 22.8125 -106.050781 21.9375 -101.738281 21.9375 -97.15625 L 21.9375 -51.0625 C 21.9375 -46.476562 22.8125 -42.160156 24.5625 -38.109375 C 26.320312 -34.066406 28.75 -30.507812 31.84375 -27.4375 C 34.945312 -24.375 38.519531 -21.96875 42.5625 -20.21875 C 46.601562 -18.46875 50.882812 -17.59375 55.40625 -17.59375 L 107.671875 -17.59375 L 107.671875 0.09375 L 55.40625 0.09375 C 48.394531 0.09375 41.785156 -1.25 35.578125 -3.9375 C 29.378906 -6.632812 23.921875 -10.359375 19.203125 -15.109375 C 14.484375 -19.867188 10.773438 -25.347656 8.078125 -31.546875 C 5.390625 -37.742188 4.046875 -44.316406 4.046875 -51.265625 Z M 41.859375 -97.15625 C 41.859375 -99.65625 42.476562 -101.914062 43.71875 -103.9375 C 44.96875 -105.957031 46.601562 -107.585938 48.625 -108.828125 C 50.65625 -110.078125 52.914062 -110.703125 55.40625 -110.703125 L 107.671875 -110.703125 L 107.671875 -128.5 L 55.40625 -128.5 C 51.15625 -128.5 47.144531 -127.671875 43.375 -126.015625 C 39.601562 -124.367188 36.265625 -122.113281 33.359375 -119.25 C 30.460938 -116.382812 28.1875 -113.046875 26.53125 -109.234375 C 24.882812 -105.429688 24.0625 -101.40625 24.0625 -97.15625 L 24.0625 -75.21875 L 107.671875 -75.21875 L 107.671875 -93.125 L 41.859375 -93.125 Z M 24.0625 -73.09375 L 24.0625 -51.0625 C 24.0625 -46.8125 24.882812 -42.78125 26.53125 -38.96875 C 28.1875 -35.164062 30.460938 -31.832031 33.359375 -28.96875 C 36.265625 -26.101562 39.601562 -23.84375 43.375 -22.1875 C 47.144531 -20.539062 51.15625 -19.71875 55.40625 -19.71875 L 107.671875 -19.71875 L 107.671875 -37.515625 L 55.40625 -37.515625 C 52.914062 -37.515625 50.65625 -38.132812 48.625 -39.375 C 46.601562 -40.625 44.96875 -42.273438 43.71875 -44.328125 C 42.476562 -46.390625 41.859375 -48.632812 41.859375 -51.0625 L 41.859375 -55.109375 L 107.671875 -55.109375 L 107.671875 -73.09375 Z M 24.0625 -73.09375 " />
                    </g>
                </g>
            </g>
        </g>
    </g>
    <g fill="#ffffff" fill-opacity="1">
        <g transform="translate(405.057511, 672.548362)">
            <g>
                <path
                    d="M -0.125 -35.78125 C -1.125 -35.863281 -1.925781 -36.507812 -2.53125 -37.71875 C -3.132812 -38.9375 -3.4375 -40.28125 -3.4375 -41.75 C -3.4375 -42.445312 -3.378906 -43.128906 -3.265625 -43.796875 C -3.160156 -44.460938 -2.976562 -45.054688 -2.71875 -45.578125 C -2.46875 -46.097656 -2.144531 -46.519531 -1.75 -46.84375 C -1.363281 -47.175781 -0.910156 -47.34375 -0.390625 -47.34375 C 1.210938 -47.34375 3.050781 -47.394531 5.125 -47.5 C 7.207031 -47.601562 9.4375 -47.722656 11.8125 -47.859375 C 13.03125 -47.984375 13.703125 -48.695312 13.828125 -50 C 14.222656 -56.28125 14.765625 -61.691406 15.453125 -66.234375 C 16.148438 -70.773438 16.992188 -74.613281 17.984375 -77.75 C 18.984375 -80.894531 20.117188 -83.441406 21.390625 -85.390625 C 22.671875 -87.335938 24.09375 -88.832031 25.65625 -89.875 C 26.125 -90.21875 26.679688 -90.570312 27.328125 -90.9375 C 27.984375 -91.300781 28.59375 -91.484375 29.15625 -91.484375 C 30.238281 -91.484375 31.375 -91.210938 32.5625 -90.671875 C 33.75 -90.140625 34.851562 -89.445312 35.875 -88.59375 C 36.894531 -87.75 37.726562 -86.796875 38.375 -85.734375 C 39.019531 -84.679688 39.34375 -83.632812 39.34375 -82.59375 C 39.34375 -82.207031 39.253906 -81.894531 39.078125 -81.65625 C 38.910156 -81.414062 38.695312 -81.1875 38.4375 -80.96875 C 36.75 -79.71875 35.253906 -78.3125 33.953125 -76.75 C 32.660156 -75.195312 31.554688 -73.289062 30.640625 -71.03125 C 29.734375 -68.78125 28.976562 -66.078125 28.375 -62.921875 C 27.769531 -59.765625 27.316406 -55.957031 27.015625 -51.5 C 27.015625 -50.800781 27.132812 -50.289062 27.375 -49.96875 C 27.613281 -49.644531 28.054688 -49.484375 28.703125 -49.484375 C 30.390625 -49.484375 32.085938 -49.613281 33.796875 -49.875 C 35.503906 -50.132812 37.132812 -50.40625 38.6875 -50.6875 C 40.25 -50.96875 41.722656 -51.234375 43.109375 -51.484375 C 44.492188 -51.742188 45.726562 -51.875 46.8125 -51.875 C 47.59375 -51.875 48.164062 -51.410156 48.53125 -50.484375 C 48.90625 -49.554688 49.09375 -48.421875 49.09375 -47.078125 C 49.09375 -46.296875 49.023438 -45.492188 48.890625 -44.671875 C 48.765625 -43.847656 48.5625 -43.113281 48.28125 -42.46875 C 48 -41.820312 47.640625 -41.269531 47.203125 -40.8125 C 46.773438 -40.351562 46.234375 -40.082031 45.578125 -40 L 28.3125 -38.1875 C 27.40625 -38.050781 26.851562 -37.679688 26.65625 -37.078125 C 26.457031 -36.472656 26.359375 -35.628906 26.359375 -34.546875 C 26.359375 -24.972656 26.597656 -16.742188 27.078125 -9.859375 C 27.554688 -2.984375 28.085938 2.800781 28.671875 7.5 C 29.253906 12.195312 29.78125 15.894531 30.25 18.59375 C 30.726562 21.300781 30.96875 23.265625 30.96875 24.484375 C 30.96875 25.390625 30.609375 26.207031 29.890625 26.9375 C 29.179688 27.675781 28.273438 28.304688 27.171875 28.828125 C 26.066406 29.347656 24.863281 29.75 23.5625 30.03125 C 22.269531 30.3125 21.0625 30.453125 19.9375 30.453125 C 18.851562 30.453125 17.890625 30.265625 17.046875 29.890625 C 16.203125 29.523438 15.710938 28.910156 15.578125 28.046875 C 15.148438 25.015625 14.785156 21.691406 14.484375 18.078125 C 14.179688 14.460938 13.929688 10.457031 13.734375 6.0625 C 13.535156 1.675781 13.394531 -3.125 13.3125 -8.34375 C 13.226562 -13.5625 13.1875 -19.285156 13.1875 -25.515625 C 13.1875 -27.117188 13.1875 -28.675781 13.1875 -30.1875 C 13.1875 -31.707031 13.226562 -33.222656 13.3125 -34.734375 C 13.3125 -36.035156 12.597656 -36.6875 11.171875 -36.6875 Z M -0.125 -35.78125 " />
            </g>
        </g>
    </g>
    <g fill="#ffffff" fill-opacity="1">
        <g transform="translate(445.767405, 672.548362)">
            <g>
                <path
                    d="M 46.171875 -56.75 C 48.546875 -56.75 50.835938 -56.378906 53.046875 -55.640625 C 55.253906 -54.910156 57.203125 -53.894531 58.890625 -52.59375 C 60.578125 -51.289062 61.929688 -49.726562 62.953125 -47.90625 C 63.972656 -46.09375 64.484375 -44.082031 64.484375 -41.875 C 64.484375 -40.96875 64.273438 -40.09375 63.859375 -39.25 C 63.453125 -38.40625 62.898438 -37.671875 62.203125 -37.046875 C 61.515625 -36.421875 60.722656 -35.921875 59.828125 -35.546875 C 58.941406 -35.179688 58.023438 -35 57.078125 -35 C 56.992188 -35 56.914062 -34.988281 56.84375 -34.96875 C 56.78125 -34.945312 56.707031 -34.9375 56.625 -34.9375 C 56.539062 -34.894531 56.453125 -34.875 56.359375 -34.875 L 56.625 -29.671875 C 56.789062 -23.484375 57.664062 -18.957031 59.25 -16.09375 C 60.832031 -13.238281 62.898438 -11.8125 65.453125 -11.8125 C 66.359375 -11.8125 67.164062 -11.898438 67.875 -12.078125 C 68.59375 -12.253906 69.265625 -12.457031 69.890625 -12.6875 C 70.523438 -12.925781 71.125 -13.132812 71.6875 -13.3125 C 72.25 -13.488281 72.8125 -13.578125 73.375 -13.578125 C 74.375 -13.578125 75.25 -13.140625 76 -12.265625 C 76.757812 -11.398438 77.140625 -10.363281 77.140625 -9.15625 C 77.140625 -7.945312 76.671875 -6.734375 75.734375 -5.515625 C 74.804688 -4.304688 73.582031 -3.210938 72.0625 -2.234375 C 70.550781 -1.265625 68.84375 -0.476562 66.9375 0.125 C 65.039062 0.726562 63.117188 1.03125 61.171875 1.03125 C 57.796875 1.03125 54.828125 -0.363281 52.265625 -3.15625 C 49.710938 -5.945312 47.894531 -10.046875 46.8125 -15.453125 C 46.550781 -16.316406 46.207031 -16.75 45.78125 -16.75 C 45.257812 -16.75 44.804688 -16.488281 44.421875 -15.96875 C 40.128906 -10.5625 35.554688 -6.503906 30.703125 -3.796875 C 25.859375 -1.085938 21.078125 0.265625 16.359375 0.265625 C 14.148438 0.265625 12.160156 -0.0546875 10.390625 -0.703125 C 8.617188 -1.359375 7.113281 -2.28125 5.875 -3.46875 C 4.644531 -4.664062 3.691406 -6.117188 3.015625 -7.828125 C 2.347656 -9.535156 2.015625 -11.453125 2.015625 -13.578125 C 2.015625 -16.554688 2.671875 -19.691406 3.984375 -22.984375 C 5.304688 -26.273438 7.09375 -29.519531 9.34375 -32.71875 C 11.601562 -35.925781 14.210938 -38.976562 17.171875 -41.875 C 20.140625 -44.78125 23.253906 -47.335938 26.515625 -49.546875 C 29.785156 -51.753906 33.109375 -53.503906 36.484375 -54.796875 C 39.867188 -56.097656 43.097656 -56.75 46.171875 -56.75 Z M 44.03125 -34.28125 C 44.800781 -35.757812 45.507812 -36.832031 46.15625 -37.5 C 46.8125 -38.164062 47.742188 -38.609375 48.953125 -38.828125 C 49.910156 -38.960938 50.390625 -39.265625 50.390625 -39.734375 C 50.390625 -40.085938 50.257812 -40.457031 50 -40.84375 C 49.175781 -41.96875 48.304688 -42.953125 47.390625 -43.796875 C 46.484375 -44.640625 45.273438 -45.0625 43.765625 -45.0625 C 42.117188 -45.0625 40.273438 -44.582031 38.234375 -43.625 C 36.203125 -42.675781 34.132812 -41.410156 32.03125 -39.828125 C 29.9375 -38.253906 27.882812 -36.457031 25.875 -34.4375 C 23.863281 -32.425781 22.078125 -30.359375 20.515625 -28.234375 C 18.960938 -26.117188 17.707031 -24.019531 16.75 -21.9375 C 15.800781 -19.863281 15.328125 -18.003906 15.328125 -16.359375 C 15.328125 -14.890625 15.726562 -13.742188 16.53125 -12.921875 C 17.332031 -12.097656 18.425781 -11.6875 19.8125 -11.6875 C 23.351562 -11.6875 27.222656 -13.566406 31.421875 -17.328125 C 35.617188 -21.097656 39.820312 -26.75 44.03125 -34.28125 Z M 58.890625 -83.640625 C 58.890625 -82.992188 58.570312 -82.363281 57.9375 -81.75 C 57.3125 -81.144531 56.46875 -80.472656 55.40625 -79.734375 C 54.351562 -79.003906 53.113281 -78.148438 51.6875 -77.171875 C 50.257812 -76.203125 48.753906 -75.015625 47.171875 -73.609375 C 45.585938 -72.203125 43.953125 -70.515625 42.265625 -68.546875 C 40.578125 -66.578125 38.929688 -64.25 37.328125 -61.5625 C 36.984375 -60.957031 36.5 -60.546875 35.875 -60.328125 C 35.25 -60.109375 34.546875 -60 33.765625 -60 C 33.023438 -60 32.296875 -60.097656 31.578125 -60.296875 C 30.867188 -60.492188 30.222656 -60.753906 29.640625 -61.078125 C 29.054688 -61.398438 28.578125 -61.785156 28.203125 -62.234375 C 27.835938 -62.691406 27.65625 -63.179688 27.65625 -63.703125 C 27.65625 -64.867188 28.007812 -66.328125 28.71875 -68.078125 C 29.4375 -69.835938 30.390625 -71.679688 31.578125 -73.609375 C 32.773438 -75.535156 34.160156 -77.460938 35.734375 -79.390625 C 37.316406 -81.316406 38.984375 -83.046875 40.734375 -84.578125 C 42.492188 -86.117188 44.269531 -87.363281 46.0625 -88.3125 C 47.863281 -89.269531 49.609375 -89.75 51.296875 -89.75 C 52.078125 -89.75 52.910156 -89.53125 53.796875 -89.09375 C 54.679688 -88.65625 55.5 -88.125 56.25 -87.5 C 57.007812 -86.875 57.640625 -86.203125 58.140625 -85.484375 C 58.640625 -84.773438 58.890625 -84.160156 58.890625 -83.640625 Z M 58.890625 -83.640625 " />
            </g>
        </g>
    </g>
    <g fill="#ffffff" fill-opacity="1">
        <g transform="translate(519.590605, 672.548362)">
            <g>
                <path
                    d="M 28.3125 -53.578125 C 30.5625 -53.578125 32.742188 -53.25 34.859375 -52.59375 C 36.984375 -51.945312 38.859375 -51.070312 40.484375 -49.96875 C 42.109375 -48.863281 43.414062 -47.609375 44.40625 -46.203125 C 45.40625 -44.796875 45.90625 -43.351562 45.90625 -41.875 C 45.90625 -40.925781 45.707031 -40.007812 45.3125 -39.125 C 44.925781 -38.238281 44.410156 -37.457031 43.765625 -36.78125 C 43.117188 -36.113281 42.382812 -35.570312 41.5625 -35.15625 C 40.738281 -34.75 39.867188 -34.546875 38.953125 -34.546875 C 37.960938 -34.546875 37.054688 -34.921875 36.234375 -35.671875 C 35.410156 -36.429688 34.53125 -37.273438 33.59375 -38.203125 C 32.664062 -39.140625 31.628906 -39.984375 30.484375 -40.734375 C 29.335938 -41.492188 27.960938 -41.875 26.359375 -41.875 C 24.804688 -41.875 23.398438 -41.503906 22.140625 -40.765625 C 20.890625 -40.035156 19.84375 -39.007812 19 -37.6875 C 18.15625 -36.375 17.503906 -34.816406 17.046875 -33.015625 C 16.585938 -31.222656 16.359375 -29.265625 16.359375 -27.140625 C 16.359375 -21.078125 17.503906 -16.453125 19.796875 -13.265625 C 22.097656 -10.085938 25.390625 -8.5 29.671875 -8.5 C 31.710938 -8.5 33.457031 -8.820312 34.90625 -9.46875 C 36.351562 -10.125 37.628906 -10.84375 38.734375 -11.625 C 39.835938 -12.40625 40.84375 -13.117188 41.75 -13.765625 C 42.65625 -14.410156 43.585938 -14.734375 44.546875 -14.734375 C 45.066406 -14.734375 45.582031 -14.570312 46.09375 -14.25 C 46.613281 -13.925781 47.078125 -13.515625 47.484375 -13.015625 C 47.898438 -12.515625 48.25 -11.960938 48.53125 -11.359375 C 48.8125 -10.753906 48.953125 -10.148438 48.953125 -9.546875 C 48.953125 -8.117188 48.25 -6.644531 46.84375 -5.125 C 45.4375 -3.613281 43.628906 -2.238281 41.421875 -1 C 39.210938 0.226562 36.753906 1.234375 34.046875 2.015625 C 31.347656 2.796875 28.722656 3.1875 26.171875 3.1875 C 22.742188 3.1875 19.601562 2.523438 16.75 1.203125 C 13.894531 -0.117188 11.425781 -1.957031 9.34375 -4.3125 C 7.269531 -6.675781 5.660156 -9.503906 4.515625 -12.796875 C 3.367188 -16.085938 2.796875 -19.722656 2.796875 -23.703125 C 2.796875 -28.023438 3.429688 -32.003906 4.703125 -35.640625 C 5.984375 -39.285156 7.757812 -42.4375 10.03125 -45.09375 C 12.300781 -47.757812 14.992188 -49.835938 18.109375 -51.328125 C 21.234375 -52.828125 24.632812 -53.578125 28.3125 -53.578125 Z M 28.3125 -53.578125 " />
            </g>
        </g>
    </g>
    <g fill="#ffffff" fill-opacity="1">
        <g transform="translate(564.780529, 672.548362)">
            <g>
                <path
                    d="M 15.125 -66.234375 C 13.875 -66.234375 12.695312 -66.414062 11.59375 -66.78125 C 10.488281 -67.15625 9.535156 -67.675781 8.734375 -68.34375 C 7.929688 -69.007812 7.289062 -69.796875 6.8125 -70.703125 C 6.34375 -71.617188 6.109375 -72.617188 6.109375 -73.703125 C 6.109375 -75.515625 6.832031 -76.984375 8.28125 -78.109375 C 9.726562 -79.234375 11.664062 -79.796875 14.09375 -79.796875 C 15.21875 -79.796875 16.296875 -79.585938 17.328125 -79.171875 C 18.367188 -78.765625 19.289062 -78.210938 20.09375 -77.515625 C 20.894531 -76.828125 21.535156 -76.019531 22.015625 -75.09375 C 22.492188 -74.164062 22.734375 -73.203125 22.734375 -72.203125 C 22.734375 -70.347656 22.050781 -68.890625 20.6875 -67.828125 C 19.320312 -66.765625 17.46875 -66.234375 15.125 -66.234375 Z M 6.234375 -46.421875 C 6.234375 -47.941406 6.890625 -49.1875 8.203125 -50.15625 C 9.523438 -51.132812 11.269531 -51.625 13.4375 -51.625 C 17.332031 -51.625 19.410156 -50.28125 19.671875 -47.59375 C 19.847656 -45.726562 20.03125 -43.628906 20.21875 -41.296875 C 20.414062 -38.960938 20.613281 -36.484375 20.8125 -33.859375 C 21.007812 -31.242188 21.179688 -28.539062 21.328125 -25.75 C 21.484375 -22.957031 21.625 -20.207031 21.75 -17.5 C 21.882812 -14.789062 21.992188 -12.179688 22.078125 -9.671875 C 22.160156 -7.160156 22.203125 -4.867188 22.203125 -2.796875 C 22.203125 -0.628906 21.429688 0.992188 19.890625 2.078125 C 18.359375 3.160156 16.125 3.703125 13.1875 3.703125 C 11.84375 3.703125 10.789062 3.382812 10.03125 2.75 C 9.269531 2.125 8.890625 1.207031 8.890625 0 C 8.890625 -5.96875 8.75 -11.5625 8.46875 -16.78125 C 8.1875 -22 7.882812 -26.640625 7.5625 -30.703125 C 7.238281 -34.773438 6.9375 -38.164062 6.65625 -40.875 C 6.375 -43.582031 6.234375 -45.429688 6.234375 -46.421875 Z M 6.234375 -46.421875 " />
            </g>
        </g>
    </g>
    <g fill="#ffffff" fill-opacity="1">
        <g transform="translate(593.608584, 672.548362)">
            <g>
                <path
                    d="M 1.890625 -73.953125 C 1.890625 -76.210938 2.535156 -77.816406 3.828125 -78.765625 C 5.128906 -79.710938 7.273438 -80.1875 10.265625 -80.1875 C 11.296875 -80.1875 12.203125 -80.078125 12.984375 -79.859375 C 13.765625 -79.648438 14.414062 -79.296875 14.9375 -78.796875 C 15.457031 -78.296875 15.878906 -77.625 16.203125 -76.78125 C 16.523438 -75.9375 16.796875 -74.863281 17.015625 -73.5625 C 17.578125 -69.71875 18.148438 -65.679688 18.734375 -61.453125 C 19.316406 -57.234375 19.878906 -53.035156 20.421875 -48.859375 C 20.960938 -44.679688 21.46875 -40.613281 21.9375 -36.65625 C 22.414062 -32.695312 22.835938 -29.015625 23.203125 -25.609375 C 23.578125 -22.210938 23.859375 -19.203125 24.046875 -16.578125 C 24.242188 -13.960938 24.34375 -11.898438 24.34375 -10.390625 C 24.34375 -8.828125 24.203125 -7.503906 23.921875 -6.421875 C 23.640625 -5.347656 23.164062 -4.484375 22.5 -3.828125 C 21.832031 -3.179688 20.96875 -2.71875 19.90625 -2.4375 C 18.84375 -2.15625 17.53125 -2.015625 15.96875 -2.015625 C 14.457031 -2.015625 13.253906 -2.398438 12.359375 -3.171875 C 11.472656 -3.953125 11.03125 -5.144531 11.03125 -6.75 C 11.03125 -8.394531 10.898438 -10.59375 10.640625 -13.34375 C 10.390625 -16.09375 10.046875 -19.15625 9.609375 -22.53125 C 9.171875 -25.90625 8.679688 -29.5 8.140625 -33.3125 C 7.609375 -37.125 7.046875 -40.890625 6.453125 -44.609375 C 5.867188 -48.328125 5.304688 -51.90625 4.765625 -55.34375 C 4.234375 -58.789062 3.75 -61.84375 3.3125 -64.5 C 2.875 -67.164062 2.523438 -69.351562 2.265625 -71.0625 C 2.015625 -72.78125 1.890625 -73.742188 1.890625 -73.953125 Z M 1.890625 -73.953125 " />
            </g>
        </g>
    </g>
</svg>
