<svg xmlns="http://www.w3.org/2000/svg" xmlns:xlink="http://www.w3.org/1999/xlink" width="1080" zoomAndPan="magnify"
    viewBox="0 0 810 809.999993" height="1080" preserveAspectRatio="xMidYMid meet" version="1">
    
    <rect x="-81" width="972" fill="#ffffff" y="-81" height="972" fill-opacity="1" />
    <rect x="-81" fill="url(#8b6d2b3ccd)" width="972" y="-81" height="972" />
    <g clip-path="url(#24a319a6df)">
        <g clip-path="url(#d3c4013da9)">
            <path fill="#ffffff" stroke-width="7" stroke="#ffffff" stroke-opacity="1"
                d="M 250.8 353.9 C 263.1 354.7 286.1 357 312.2 364.2 C 338.3 371.4 367.5 383.4 392.4 403.5 C 393.8 404.6 395.7 404.8 397.3 404 C 398.9 403.3 399.9 401.6 399.9 399.9 L 399.9 157.9 C 399.9 156.4 399.2 155 398.1 154.2 C 391.3 149.1 375.2 138.1 350.5 128 C 325.7 117.8 292.4 108.7 251.2 107.4 C 249.9 107.4 248.7 107.8 247.8 108.7 C 246.9 109.6 246.4 110.8 246.4 112 L 246.4 349.3 C 246.4 351.7 248.3 353.8 250.8 353.9 Z M 390.6 160.2 L 390.6 390.5 C 366.2 372.9 339.1 362 314.7 355.3 C 290.5 348.6 269.1 346 255.7 345 L 255.7 116.8 C 293.4 118.6 324.1 127.2 347 136.5 C 368.8 145.4 383.5 155 390.6 160.2 Z M 390.6 160.2"
                fill-opacity="1" fill-rule="nonzero" />
        </g>
    </g>
    <g clip-path="url(#4cf3dc283d)">
        <g clip-path="url(#3be1101d36)">
            <path fill="#ffffff" stroke-width="7" stroke="#ffffff" stroke-opacity="1"
                d="M 412.8 404 C 414.4 404.8 416.3 404.6 417.7 403.5 C 442.6 383.4 471.8 371.4 497.9 364.2 C 524 357 547 354.7 559.3 353.9 C 561.8 353.8 563.7 351.8 563.7 349.3 L 563.7 112 C 563.7 110.8 563.2 109.6 562.3 108.7 C 561.4 107.8 560.2 107.4 558.9 107.4 C 517.6 108.7 484.2 117.8 459.5 127.9 C 434.8 138 418.7 149.1 412 154.2 C 410.9 155 410.2 156.4 410.2 157.8 L 410.2 399.9 C 410.2 401.6 411.2 403.3 412.8 404 Z M 463 136.5 C 485.8 127.2 516.5 118.6 554.4 116.8 L 554.4 345 C 541 346 519.6 348.6 495.4 355.3 C 471 362 443.9 372.9 419.5 390.5 L 419.5 160.2 C 426.5 155 441.2 145.4 463 136.5 Z M 463 136.5"
                fill-opacity="1" fill-rule="nonzero" />
        </g>
    </g>
    <g clip-path="url(#2db2579a00)">
        <g clip-path="url(#e32f4d6311)">
            <path fill="#ffffff" stroke-width="7" stroke="#ffffff" stroke-opacity="1"
                d="M 355.9 402.5 C 358.1 403 360.4 401.8 361.2 399.6 C 362.1 397.5 361.2 395 359.1 393.9 C 331.7 379.1 302.5 371.6 280.1 367.8 C 268.8 365.9 259.3 364.9 252.5 364.4 C 249.1 364.2 246.3 364 244.4 364 C 243.5 363.9 242.7 363.9 242.2 363.9 C 241.9 363.9 241.7 363.9 241.6 363.9 C 241.4 363.9 241.3 363.9 241.3 363.9 L 236.1 363.9 L 236.1 168.9 C 236.1 166.5 234.3 164.5 231.9 164.3 C 228.3 164 224.4 163.9 220.5 163.9 C 213.8 163.9 207 164.3 201.4 164.7 C 199 164.9 197.2 166.9 197.2 169.3 L 197.2 387.6 C 197.2 388.9 197.7 390.1 198.7 391 C 199.7 391.9 201 392.3 202.3 392.2 C 217.6 390.4 232.7 389.6 247.3 389.6 C 289.2 389.6 327.3 395.9 355.9 402.5 Z M 226.9 173.3 L 226.9 368.5 C 226.9 369.7 227.4 370.9 228.2 371.8 C 229.1 372.6 230.3 373.1 231.5 373.1 L 241.3 373.1 C 241.6 373.1 245.6 373.2 252.2 373.7 C 262.2 374.5 278.1 376.3 296.4 380.5 C 302 381.9 307.9 383.4 313.8 385.2 C 293.5 382.3 271 380.4 247.3 380.4 C 234 380.4 220.3 381 206.4 382.4 L 206.4 173.6 C 210.8 173.3 215.7 173.1 220.5 173.1 C 222.7 173.1 224.8 173.2 226.9 173.3 Z M 226.9 173.3"
                fill-opacity="1" fill-rule="nonzero" />
        </g>
    </g>
    <g clip-path="url(#5b3cd499ce)">
        <g clip-path="url(#3f6fca7b30)">
            <path fill="#ffffff" stroke-width="7" stroke="#ffffff" stroke-opacity="1"
                d="M 608.7 164.7 C 603.1 164.3 596.3 163.9 589.6 163.9 C 585.7 163.9 581.8 164 578.2 164.3 C 575.8 164.5 574 166.5 574 168.9 L 574 363.9 L 568.8 363.9 L 568.9 363.9 C 568.8 363.9 568.7 363.9 568.5 363.9 C 566.2 363.9 550 364.3 527.8 368.2 C 505.7 372.1 477.4 379.6 450.9 394 C 448.8 395.1 447.9 397.5 448.7 399.7 C 449.6 401.8 451.8 403.1 454.1 402.5 C 482.6 395.9 520.9 389.6 562.8 389.6 C 577.4 389.6 592.5 390.4 607.8 392.2 C 609.1 392.3 610.4 391.9 611.4 391 C 612.4 390.1 612.9 388.9 612.9 387.6 L 612.9 169.3 C 612.9 166.9 611.1 164.9 608.7 164.7 Z M 496.3 385.2 C 508.9 381.4 521 378.8 531.5 377 C 542.4 375.1 551.7 374.2 558.3 373.7 C 561.6 373.4 564.2 373.3 566 373.2 C 566.9 373.2 567.6 373.2 568.1 373.2 C 568.4 373.1 568.5 373.1 568.7 373.1 L 568.8 373.1 L 568.9 373.1 L 578.6 373.1 C 581.2 373.1 583.3 371.1 583.3 368.5 L 583.3 173.3 C 585.3 173.2 587.4 173.1 589.6 173.1 C 594.4 173.1 599.3 173.3 603.7 173.6 L 603.7 382.4 C 589.8 381 576.1 380.4 562.8 380.4 C 539.1 380.4 516.6 382.3 496.3 385.2 Z M 496.3 385.2"
                fill-opacity="1" fill-rule="nonzero" />
        </g>
    </g>
    <g transform="matrix(1,0,0,1,161,381)">
        <g clip-path="url(#e31f066cc8)">
            <g fill="#f9fafd" fill-opacity="1">
                <g transform="translate(0.8,186.7)">
                    <g>
                        <path
                            d="M 78.7 -149.1 C 85.9 -149.1 93 -148.1 99.7 -146.1 C 106.5 -144.2 112.9 -141.3 118.8 -137.7 L 109.7 -121.4 C 105.2 -124.6 100.3 -126.9 95 -128.5 C 89.7 -130.1 84.3 -130.8 78.7 -130.8 C 72.4 -130.8 66.4 -129.9 60.7 -127.9 C 55 -126 49.8 -123.3 45 -119.9 C 40.3 -116.4 36.2 -112.3 32.7 -107.6 C 29.2 -102.9 26.4 -97.6 24.5 -92 C 22.6 -86.3 21.6 -80.3 21.6 -74 C 21.6 -67.7 22.6 -61.8 24.5 -56.1 C 26.4 -50.4 29.2 -45.2 32.7 -40.4 C 36.2 -35.7 40.3 -31.6 45 -28.2 C 49.8 -24.7 55 -22 60.7 -20.1 C 66.4 -18.1 72.4 -17.2 78.7 -17.2 C 84.3 -17.2 89.7 -18 95 -19.6 C 100.3 -21.1 105.2 -23.5 109.7 -26.6 L 118.8 -10.5 C 112.9 -6.8 106.5 -3.9 99.7 -1.9 C 93 0.1 85.9 1.1 78.7 1.1 C 70.3 1.1 62.3 -0.1 54.8 -2.7 C 47.2 -5.2 40.3 -8.8 34.1 -13.3 C 27.8 -17.9 22.4 -23.3 17.8 -29.6 C 13.2 -35.8 9.7 -42.7 7.1 -50.2 C 4.6 -57.7 3.3 -65.6 3.3 -74 C 3.3 -82.3 4.6 -90.2 7.1 -97.7 C 9.7 -105.2 13.2 -112.1 17.8 -118.4 C 22.4 -124.7 27.8 -130.1 34.1 -134.7 C 40.3 -139.3 47.2 -142.8 54.8 -145.3 C 62.3 -147.9 70.3 -149.1 78.7 -149.1 Z M 78.7 -128.9 C 84.2 -128.9 89.5 -128.1 94.6 -126.5 C 99.7 -124.9 104.3 -122.7 108.6 -119.8 L 99.9 -103.7 C 96.8 -105.9 93.5 -107.6 89.9 -108.8 C 86.4 -110 82.6 -110.6 78.7 -110.6 C 73.5 -110.6 68.7 -109.7 64.3 -107.8 C 59.8 -105.9 55.9 -103.3 52.5 -99.9 C 49.2 -96.6 46.6 -92.7 44.7 -88.3 C 42.8 -83.9 41.9 -79.1 41.9 -74 C 41.9 -68.9 42.8 -64.1 44.7 -59.7 C 46.6 -55.3 49.2 -51.4 52.5 -48.1 C 55.9 -44.7 59.8 -42.1 64.3 -40.2 C 68.7 -38.3 73.5 -37.4 78.7 -37.4 C 82.6 -37.4 86.4 -38 89.9 -39.2 C 93.5 -40.4 96.8 -42.1 99.9 -44.3 L 108.6 -28.2 C 104.3 -25.3 99.7 -23.1 94.6 -21.5 C 89.5 -19.9 84.2 -19.1 78.7 -19.1 C 71 -19.1 63.9 -20.5 57.3 -23.4 C 50.6 -26.3 44.8 -30.2 39.7 -35.2 C 34.7 -40.3 30.7 -46.1 27.9 -52.7 C 25 -59.4 23.6 -66.5 23.6 -74 C 23.6 -81.6 25 -88.6 27.9 -95.2 C 30.7 -101.8 34.7 -107.7 39.7 -112.7 C 44.8 -117.8 50.6 -121.7 57.3 -124.6 C 63.9 -127.5 71 -128.9 78.7 -128.9 Z M 78.7 -128.9" />
                    </g>
                </g>
                <g transform="translate(125.1,186.7)">
                    <g>
                        <path
                            d="M 78.7 -149.1 C 85.9 -149.1 93 -148.1 99.7 -146.1 C 106.5 -144.2 112.9 -141.3 118.8 -137.7 L 109.7 -121.4 C 105.2 -124.6 100.3 -126.9 95 -128.5 C 89.7 -130.1 84.3 -130.8 78.7 -130.8 C 72.4 -130.8 66.4 -129.9 60.7 -127.9 C 55 -126 49.8 -123.3 45 -119.9 C 40.3 -116.4 36.2 -112.3 32.7 -107.6 C 29.2 -102.9 26.4 -97.6 24.5 -92 C 22.6 -86.3 21.6 -80.3 21.6 -74 C 21.6 -67.7 22.6 -61.8 24.5 -56.1 C 26.4 -50.4 29.2 -45.2 32.7 -40.4 C 36.2 -35.7 40.3 -31.6 45 -28.2 C 49.8 -24.7 55 -22 60.7 -20.1 C 66.4 -18.1 72.4 -17.2 78.7 -17.2 C 84.3 -17.2 89.7 -18 95 -19.6 C 100.3 -21.1 105.2 -23.5 109.7 -26.6 L 118.8 -10.5 C 112.9 -6.8 106.5 -3.9 99.7 -1.9 C 93 0.1 85.9 1.1 78.7 1.1 C 70.3 1.1 62.3 -0.1 54.8 -2.7 C 47.2 -5.2 40.3 -8.8 34.1 -13.3 C 27.8 -17.9 22.4 -23.3 17.8 -29.6 C 13.2 -35.8 9.7 -42.7 7.1 -50.2 C 4.6 -57.7 3.3 -65.6 3.3 -74 C 3.3 -82.3 4.6 -90.2 7.1 -97.7 C 9.7 -105.2 13.2 -112.1 17.8 -118.4 C 22.4 -124.7 27.8 -130.1 34.1 -134.7 C 40.3 -139.3 47.2 -142.8 54.8 -145.3 C 62.3 -147.9 70.3 -149.1 78.7 -149.1 Z M 78.7 -128.9 C 84.2 -128.9 89.5 -128.1 94.6 -126.5 C 99.7 -124.9 104.3 -122.7 108.6 -119.8 L 99.9 -103.7 C 96.8 -105.9 93.5 -107.6 89.9 -108.8 C 86.4 -110 82.6 -110.6 78.7 -110.6 C 73.5 -110.6 68.7 -109.7 64.3 -107.8 C 59.8 -105.9 55.9 -103.3 52.5 -99.9 C 49.2 -96.6 46.6 -92.7 44.7 -88.3 C 42.8 -83.9 41.9 -79.1 41.9 -74 C 41.9 -68.9 42.8 -64.1 44.7 -59.7 C 46.6 -55.3 49.2 -51.4 52.5 -48.1 C 55.9 -44.7 59.8 -42.1 64.3 -40.2 C 68.7 -38.3 73.5 -37.4 78.7 -37.4 C 82.6 -37.4 86.4 -38 89.9 -39.2 C 93.5 -40.4 96.8 -42.1 99.9 -44.3 L 108.6 -28.2 C 104.3 -25.3 99.7 -23.1 94.6 -21.5 C 89.5 -19.9 84.2 -19.1 78.7 -19.1 C 71 -19.1 63.9 -20.5 57.3 -23.4 C 50.6 -26.3 44.8 -30.2 39.7 -35.2 C 34.7 -40.3 30.7 -46.1 27.9 -52.7 C 25 -59.4 23.6 -66.5 23.6 -74 C 23.6 -81.6 25 -88.6 27.9 -95.2 C 30.7 -101.8 34.7 -107.7 39.7 -112.7 C 44.8 -117.8 50.6 -121.7 57.3 -124.6 C 63.9 -127.5 71 -128.9 78.7 -128.9 Z M 78.7 -128.9" />
                    </g>
                </g>
                <g transform="translate(249.3,186.7)">
                    <g>
                        <path
                            d="M 48.3 -131.9 C 42.9 -132 38.3 -131 34.4 -128.9 C 30.5 -126.8 27.5 -124 25.2 -120.5 C 23 -117 21.5 -113.2 20.8 -108.9 C 20.1 -104.7 20.2 -100.5 21.1 -96.3 C 22 -92 23.7 -88.1 26.1 -84.6 C 28.6 -81 31.9 -78.2 36 -76 C 40.1 -73.8 45 -72.7 50.7 -72.7 L 69.3 -72.5 C 75.8 -72.5 81.2 -71.2 85.5 -68.8 C 89.8 -66.3 93.1 -63 95.3 -59 C 97.5 -55.1 98.6 -50.8 98.6 -46.3 C 98.6 -41.1 97.6 -36.3 95.5 -32 C 93.5 -27.6 90.6 -24.2 86.6 -21.6 C 82.7 -19.1 78 -17.8 72.4 -17.8 L 54.6 -18 C 49.7 -18.1 45 -19 40.5 -20.7 C 35.9 -22.4 32.1 -25 28.9 -28.4 C 25.7 -31.8 23.8 -36 23 -41 L 40.8 -44.4 C 41.5 -42.1 42.9 -40.2 44.9 -38.6 C 46.9 -37 49.2 -36.1 51.7 -35.9 L 72.2 -35.9 C 74.5 -35.9 76.3 -36.5 77.7 -37.9 C 79.1 -39.2 80 -40.8 80.4 -42.8 C 80.9 -44.7 80.9 -46.7 80.4 -48.6 C 79.9 -50.6 79 -52.2 77.6 -53.5 C 76.3 -54.8 74.5 -55.5 72.2 -55.5 L 53.4 -55.5 C 44.8 -55.5 37.3 -56.8 30.9 -59.4 C 24.5 -62.1 19.1 -65.6 14.9 -70.1 C 10.6 -74.5 7.4 -79.5 5.3 -85 C 3.1 -90.5 1.9 -96.3 1.8 -102.2 C 1.7 -108.1 2.6 -113.9 4.5 -119.4 C 6.4 -124.9 9.3 -129.9 13.1 -134.4 C 17 -138.8 21.8 -142.4 27.6 -145 C 33.4 -147.6 40.1 -148.9 47.7 -148.9 L 67.7 -148.9 C 73.5 -148.9 79.1 -148 84.6 -146.2 C 90 -144.4 95 -141.8 99.5 -138.4 C 104.1 -135 107.9 -130.9 110.9 -126.2 C 113.9 -121.5 116 -116.3 117 -110.6 L 100.3 -107.7 C 99.8 -111.7 98.4 -115.3 96.3 -118.3 C 94.3 -121.3 91.6 -123.9 88.5 -125.9 C 85.3 -127.9 81.8 -129.4 78 -130.4 C 74.2 -131.4 70.3 -131.9 66.3 -131.9 Z M 72.4 -15.8 C 77.4 -15.8 81.8 -16.6 85.3 -18.2 C 88.9 -19.8 91.8 -22.1 94 -24.9 C 96.2 -27.8 97.9 -31.1 98.9 -34.7 C 100 -38.4 100.5 -42.3 100.5 -46.3 C 100.5 -49.9 99.9 -53.4 98.6 -56.7 C 97.4 -60.1 95.5 -63.1 92.9 -65.8 C 90.4 -68.5 87.1 -70.6 83.2 -72.2 C 79.2 -73.8 74.6 -74.6 69.3 -74.6 L 50.3 -74.6 C 45.1 -74.7 40.6 -75.7 36.8 -77.8 C 33.1 -79.8 30.1 -82.4 27.8 -85.8 C 25.5 -89.1 23.9 -92.8 23.1 -96.7 C 22.3 -100.6 22.2 -104.6 22.8 -108.5 C 23.4 -112.5 24.8 -116.1 26.9 -119.3 C 29 -122.6 31.8 -125.2 35.3 -127.2 C 38.9 -129.1 43.1 -130.1 48.1 -130.1 L 66.5 -130.1 C 71.4 -130.1 76.2 -129.3 80.7 -127.5 C 85.2 -125.8 89 -123.3 92.2 -119.9 C 95.4 -116.5 97.3 -112.2 98 -107.1 L 80.4 -103.7 C 79.6 -106 78.3 -108 76.3 -109.6 C 74.3 -111.2 72 -112.1 69.5 -112.1 L 48.9 -112.1 C 46.6 -112.1 44.8 -111.5 43.4 -110.2 C 42 -108.8 41.1 -107.2 40.6 -105.3 C 40.2 -103.4 40.2 -101.4 40.6 -99.5 C 41.1 -97.5 42 -95.9 43.4 -94.6 C 44.8 -93.3 46.6 -92.6 48.9 -92.6 L 67.7 -92.6 C 76 -92.6 83.3 -91.3 89.6 -88.7 C 95.8 -86.1 101.1 -82.6 105.4 -78.2 C 109.7 -73.8 112.9 -68.8 115.1 -63.3 C 117.3 -57.8 118.4 -52.1 118.5 -46.3 C 118.6 -40.4 117.5 -34.7 115.4 -29.1 C 113.3 -23.5 110.1 -18.5 105.9 -13.9 C 101.7 -9.4 96.4 -5.8 90.1 -3.2 C 83.8 -0.5 76.5 0.8 68.3 0.8 L 53.4 0.8 C 47.7 0.8 42.1 -0.1 36.6 -1.9 C 31.1 -3.7 26.1 -6.4 21.6 -9.8 C 17 -13.2 13.2 -17.2 10.1 -21.9 C 6.9 -26.6 4.8 -31.8 3.7 -37.5 L 20.8 -40.4 C 21.4 -36.4 22.7 -32.8 24.8 -29.8 C 26.9 -26.7 29.5 -24.1 32.7 -22.1 C 35.8 -20 39.3 -18.5 43.1 -17.5 C 46.9 -16.5 50.8 -16 54.8 -16 Z M 72.4 -15.8" />
                    </g>
                </g>
                <g transform="translate(372.4,186.7)">
                    <g>
                        <path
                            d="M 4 -96.6 C 4 -103.6 5.4 -110.3 8.1 -116.5 C 10.8 -122.8 14.5 -128.2 19.2 -133 C 23.9 -137.7 29.4 -141.4 35.6 -144.1 C 41.8 -146.8 48.4 -148.1 55.4 -148.1 L 107.7 -148.1 L 107.7 -130.6 L 55.4 -130.6 C 50.9 -130.6 46.6 -129.8 42.6 -128 C 38.5 -126.3 34.9 -123.8 31.8 -120.8 C 28.8 -117.7 26.3 -114.1 24.6 -110.1 C 22.8 -106.1 21.9 -101.7 21.9 -97.2 L 21.9 -51.1 C 21.9 -46.5 22.8 -42.2 24.6 -38.1 C 26.3 -34.1 28.8 -30.5 31.8 -27.4 C 34.9 -24.4 38.5 -22 42.6 -20.2 C 46.6 -18.5 50.9 -17.6 55.4 -17.6 L 107.7 -17.6 L 107.7 0.1 L 55.4 0.1 C 48.4 0.1 41.8 -1.3 35.6 -3.9 C 29.4 -6.6 23.9 -10.4 19.2 -15.1 C 14.5 -19.9 10.8 -25.3 8.1 -31.5 C 5.4 -37.7 4 -44.3 4 -51.3 Z M 41.9 -97.2 C 41.9 -99.7 42.5 -101.9 43.7 -103.9 C 45 -106 46.6 -107.6 48.6 -108.8 C 50.7 -110.1 52.9 -110.7 55.4 -110.7 L 107.7 -110.7 L 107.7 -128.5 L 55.4 -128.5 C 51.2 -128.5 47.1 -127.7 43.4 -126 C 39.6 -124.4 36.3 -122.1 33.4 -119.3 C 30.5 -116.4 28.2 -113 26.5 -109.2 C 24.9 -105.4 24.1 -101.4 24.1 -97.2 L 24.1 -75.2 L 107.7 -75.2 L 107.7 -93.1 L 41.9 -93.1 Z M 24.1 -73.1 L 24.1 -51.1 C 24.1 -46.8 24.9 -42.8 26.5 -39 C 28.2 -35.2 30.5 -31.8 33.4 -29 C 36.3 -26.1 39.6 -23.8 43.4 -22.2 C 47.1 -20.5 51.2 -19.7 55.4 -19.7 L 107.7 -19.7 L 107.7 -37.5 L 55.4 -37.5 C 52.9 -37.5 50.7 -38.1 48.6 -39.4 C 46.6 -40.6 45 -42.3 43.7 -44.3 C 42.5 -46.4 41.9 -48.6 41.9 -51.1 L 41.9 -55.1 L 107.7 -55.1 L 107.7 -73.1 Z M 24.1 -73.1" />
                    </g>
                </g>
            </g>
        </g>
    </g>
    <g fill="#ffffff" fill-opacity="1">
        <g transform="translate(405.1,672.5)">
            <g>
                <path
                    d="M -0.1 -35.8 C -1.1 -35.9 -1.9 -36.5 -2.5 -37.7 C -3.1 -38.9 -3.4 -40.3 -3.4 -41.8 C -3.4 -42.4 -3.4 -43.1 -3.3 -43.8 C -3.2 -44.5 -3 -45.1 -2.7 -45.6 C -2.5 -46.1 -2.1 -46.5 -1.8 -46.8 C -1.4 -47.2 -0.9 -47.3 -0.4 -47.3 C 1.2 -47.3 3.1 -47.4 5.1 -47.5 C 7.2 -47.6 9.4 -47.7 11.8 -47.9 C 13 -48 13.7 -48.7 13.8 -50 C 14.2 -56.3 14.8 -61.7 15.5 -66.2 C 16.1 -70.8 17 -74.6 18 -77.8 C 19 -80.9 20.1 -83.4 21.4 -85.4 C 22.7 -87.3 24.1 -88.8 25.7 -89.9 C 26.1 -90.2 26.7 -90.6 27.3 -90.9 C 28 -91.3 28.6 -91.5 29.2 -91.5 C 30.2 -91.5 31.4 -91.2 32.6 -90.7 C 33.8 -90.1 34.9 -89.4 35.9 -88.6 C 36.9 -87.8 37.7 -86.8 38.4 -85.7 C 39 -84.7 39.3 -83.6 39.3 -82.6 C 39.3 -82.2 39.3 -81.9 39.1 -81.7 C 38.9 -81.4 38.7 -81.2 38.4 -81 C 36.8 -79.7 35.3 -78.3 34 -76.8 C 32.7 -75.2 31.6 -73.3 30.6 -71 C 29.7 -68.8 29 -66.1 28.4 -62.9 C 27.8 -59.8 27.3 -56 27 -51.5 C 27 -50.8 27.1 -50.3 27.4 -50 C 27.6 -49.6 28.1 -49.5 28.7 -49.5 C 30.4 -49.5 32.1 -49.6 33.8 -49.9 C 35.5 -50.1 37.1 -50.4 38.7 -50.7 C 40.3 -51 41.7 -51.2 43.1 -51.5 C 44.5 -51.7 45.7 -51.9 46.8 -51.9 C 47.6 -51.9 48.2 -51.4 48.5 -50.5 C 48.9 -49.6 49.1 -48.4 49.1 -47.1 C 49.1 -46.3 49 -45.5 48.9 -44.7 C 48.8 -43.8 48.6 -43.1 48.3 -42.5 C 48 -41.8 47.6 -41.3 47.2 -40.8 C 46.8 -40.4 46.2 -40.1 45.6 -40 L 28.3 -38.2 C 27.4 -38.1 26.9 -37.7 26.7 -37.1 C 26.5 -36.5 26.4 -35.6 26.4 -34.5 C 26.4 -25 26.6 -16.7 27.1 -9.9 C 27.6 -3 28.1 2.8 28.7 7.5 C 29.3 12.2 29.8 15.9 30.3 18.6 C 30.7 21.3 31 23.3 31 24.5 C 31 25.4 30.6 26.2 29.9 26.9 C 29.2 27.7 28.3 28.3 27.2 28.8 C 26.1 29.3 24.9 29.8 23.6 30 C 22.3 30.3 21.1 30.5 19.9 30.5 C 18.9 30.5 17.9 30.3 17 29.9 C 16.2 29.5 15.7 28.9 15.6 28 C 15.1 25 14.8 21.7 14.5 18.1 C 14.2 14.5 13.9 10.5 13.7 6.1 C 13.5 1.7 13.4 -3.1 13.3 -8.3 C 13.2 -13.6 13.2 -19.3 13.2 -25.5 C 13.2 -27.1 13.2 -28.7 13.2 -30.2 C 13.2 -31.7 13.2 -33.2 13.3 -34.7 C 13.3 -36 12.6 -36.7 11.2 -36.7 Z M -0.1 -35.8" />
            </g>
        </g>
    </g>
    <g fill="#ffffff" fill-opacity="1">
        <g transform="translate(445.8,672.5)">
            <g>
                <path
                    d="M 46.2 -56.8 C 48.5 -56.8 50.8 -56.4 53 -55.6 C 55.3 -54.9 57.2 -53.9 58.9 -52.6 C 60.6 -51.3 61.9 -49.7 63 -47.9 C 64 -46.1 64.5 -44.1 64.5 -41.9 C 64.5 -41 64.3 -40.1 63.9 -39.3 C 63.5 -38.4 62.9 -37.7 62.2 -37 C 61.5 -36.4 60.7 -35.9 59.8 -35.5 C 58.9 -35.2 58 -35 57.1 -35 C 57 -35 56.9 -35 56.8 -35 C 56.8 -34.9 56.7 -34.9 56.6 -34.9 C 56.5 -34.9 56.5 -34.9 56.4 -34.9 L 56.6 -29.7 C 56.8 -23.5 57.7 -19 59.3 -16.1 C 60.8 -13.2 62.9 -11.8 65.5 -11.8 C 66.4 -11.8 67.2 -11.9 67.9 -12.1 C 68.6 -12.3 69.3 -12.5 69.9 -12.7 C 70.5 -12.9 71.1 -13.1 71.7 -13.3 C 72.3 -13.5 72.8 -13.6 73.4 -13.6 C 74.4 -13.6 75.3 -13.1 76 -12.3 C 76.8 -11.4 77.1 -10.4 77.1 -9.2 C 77.1 -7.9 76.7 -6.7 75.7 -5.5 C 74.8 -4.3 73.6 -3.2 72.1 -2.2 C 70.6 -1.3 68.8 -0.5 66.9 0.1 C 65 0.7 63.1 1 61.2 1 C 57.8 1 54.8 -0.4 52.3 -3.2 C 49.7 -5.9 47.9 -10 46.8 -15.5 C 46.6 -16.3 46.2 -16.8 45.8 -16.8 C 45.3 -16.8 44.8 -16.5 44.4 -16 C 40.1 -10.6 35.6 -6.5 30.7 -3.8 C 25.9 -1.1 21.1 0.3 16.4 0.3 C 14.1 0.3 12.2 -0.1 10.4 -0.7 C 8.6 -1.4 7.1 -2.3 5.9 -3.5 C 4.6 -4.7 3.7 -6.1 3 -7.8 C 2.3 -9.5 2 -11.5 2 -13.6 C 2 -16.6 2.7 -19.7 4 -23 C 5.3 -26.3 7.1 -29.5 9.3 -32.7 C 11.6 -35.9 14.2 -39 17.2 -41.9 C 20.1 -44.8 23.3 -47.3 26.5 -49.5 C 29.8 -51.8 33.1 -53.5 36.5 -54.8 C 39.9 -56.1 43.1 -56.8 46.2 -56.8 Z M 44 -34.3 C 44.8 -35.8 45.5 -36.8 46.2 -37.5 C 46.8 -38.2 47.7 -38.6 49 -38.8 C 49.9 -39 50.4 -39.3 50.4 -39.7 C 50.4 -40.1 50.3 -40.5 50 -40.8 C 49.2 -42 48.3 -43 47.4 -43.8 C 46.5 -44.6 45.3 -45.1 43.8 -45.1 C 42.1 -45.1 40.3 -44.6 38.2 -43.6 C 36.2 -42.7 34.1 -41.4 32 -39.8 C 29.9 -38.3 27.9 -36.5 25.9 -34.4 C 23.9 -32.4 22.1 -30.4 20.5 -28.2 C 19 -26.1 17.7 -24 16.8 -21.9 C 15.8 -19.9 15.3 -18 15.3 -16.4 C 15.3 -14.9 15.7 -13.7 16.5 -12.9 C 17.3 -12.1 18.4 -11.7 19.8 -11.7 C 23.4 -11.7 27.2 -13.6 31.4 -17.3 C 35.6 -21.1 39.8 -26.8 44 -34.3 Z M 58.9 -83.6 C 58.9 -83 58.6 -82.4 57.9 -81.8 C 57.3 -81.1 56.5 -80.5 55.4 -79.7 C 54.4 -79 53.1 -78.1 51.7 -77.2 C 50.3 -76.2 48.8 -75 47.2 -73.6 C 45.6 -72.2 44 -70.5 42.3 -68.5 C 40.6 -66.6 38.9 -64.3 37.3 -61.6 C 37 -61 36.5 -60.5 35.9 -60.3 C 35.3 -60.1 34.5 -60 33.8 -60 C 33 -60 32.3 -60.1 31.6 -60.3 C 30.9 -60.5 30.2 -60.8 29.6 -61.1 C 29.1 -61.4 28.6 -61.8 28.2 -62.2 C 27.8 -62.7 27.7 -63.2 27.7 -63.7 C 27.7 -64.9 28 -66.3 28.7 -68.1 C 29.4 -69.8 30.4 -71.7 31.6 -73.6 C 32.8 -75.5 34.2 -77.5 35.7 -79.4 C 37.3 -81.3 39 -83 40.7 -84.6 C 42.5 -86.1 44.3 -87.4 46.1 -88.3 C 47.9 -89.3 49.6 -89.8 51.3 -89.8 C 52.1 -89.8 52.9 -89.5 53.8 -89.1 C 54.7 -88.7 55.5 -88.1 56.3 -87.5 C 57 -86.9 57.6 -86.2 58.1 -85.5 C 58.6 -84.8 58.9 -84.2 58.9 -83.6 Z M 58.9 -83.6" />
            </g>
        </g>
    </g>
    <g fill="#ffffff" fill-opacity="1">
        <g transform="translate(519.6,672.5)">
            <g>
                <path
                    d="M 28.3 -53.6 C 30.6 -53.6 32.7 -53.3 34.9 -52.6 C 37 -51.9 38.9 -51.1 40.5 -50 C 42.1 -48.9 43.4 -47.6 44.4 -46.2 C 45.4 -44.8 45.9 -43.4 45.9 -41.9 C 45.9 -40.9 45.7 -40 45.3 -39.1 C 44.9 -38.2 44.4 -37.5 43.8 -36.8 C 43.1 -36.1 42.4 -35.6 41.6 -35.2 C 40.7 -34.8 39.9 -34.5 39 -34.5 C 38 -34.5 37.1 -34.9 36.2 -35.7 C 35.4 -36.4 34.5 -37.3 33.6 -38.2 C 32.7 -39.1 31.6 -40 30.5 -40.7 C 29.3 -41.5 28 -41.9 26.4 -41.9 C 24.8 -41.9 23.4 -41.5 22.1 -40.8 C 20.9 -40 19.8 -39 19 -37.7 C 18.2 -36.4 17.5 -34.8 17 -33 C 16.6 -31.2 16.4 -29.3 16.4 -27.1 C 16.4 -21.1 17.5 -16.5 19.8 -13.3 C 22.1 -10.1 25.4 -8.5 29.7 -8.5 C 31.7 -8.5 33.5 -8.8 34.9 -9.5 C 36.4 -10.1 37.6 -10.8 38.7 -11.6 C 39.8 -12.4 40.8 -13.1 41.8 -13.8 C 42.7 -14.4 43.6 -14.7 44.5 -14.7 C 45.1 -14.7 45.6 -14.6 46.1 -14.3 C 46.6 -13.9 47.1 -13.5 47.5 -13 C 47.9 -12.5 48.3 -12 48.5 -11.4 C 48.8 -10.8 49 -10.1 49 -9.5 C 49 -8.1 48.3 -6.6 46.8 -5.1 C 45.4 -3.6 43.6 -2.2 41.4 -1 C 39.2 0.2 36.8 1.2 34 2 C 31.3 2.8 28.7 3.2 26.2 3.2 C 22.7 3.2 19.6 2.5 16.8 1.2 C 13.9 -0.1 11.4 -2 9.3 -4.3 C 7.3 -6.7 5.7 -9.5 4.5 -12.8 C 3.4 -16.1 2.8 -19.7 2.8 -23.7 C 2.8 -28 3.4 -32 4.7 -35.6 C 6 -39.3 7.8 -42.4 10 -45.1 C 12.3 -47.8 15 -49.8 18.1 -51.3 C 21.2 -52.8 24.6 -53.6 28.3 -53.6 Z M 28.3 -53.6" />
            </g>
        </g>
    </g>
    <g fill="#ffffff" fill-opacity="1">
        <g transform="translate(564.8,672.5)">
            <g>
                <path
                    d="M 15.1 -66.2 C 13.9 -66.2 12.7 -66.4 11.6 -66.8 C 10.5 -67.2 9.5 -67.7 8.7 -68.3 C 7.9 -69 7.3 -69.8 6.8 -70.7 C 6.3 -71.6 6.1 -72.6 6.1 -73.7 C 6.1 -75.5 6.8 -77 8.3 -78.1 C 9.7 -79.2 11.7 -79.8 14.1 -79.8 C 15.2 -79.8 16.3 -79.6 17.3 -79.2 C 18.4 -78.8 19.3 -78.2 20.1 -77.5 C 20.9 -76.8 21.5 -76 22 -75.1 C 22.5 -74.2 22.7 -73.2 22.7 -72.2 C 22.7 -70.3 22.1 -68.9 20.7 -67.8 C 19.3 -66.8 17.5 -66.2 15.1 -66.2 Z M 6.2 -46.4 C 6.2 -47.9 6.9 -49.2 8.2 -50.2 C 9.5 -51.1 11.3 -51.6 13.4 -51.6 C 17.3 -51.6 19.4 -50.3 19.7 -47.6 C 19.8 -45.7 20 -43.6 20.2 -41.3 C 20.4 -39 20.6 -36.5 20.8 -33.9 C 21 -31.2 21.2 -28.5 21.3 -25.8 C 21.5 -23 21.6 -20.2 21.8 -17.5 C 21.9 -14.8 22 -12.2 22.1 -9.7 C 22.2 -7.2 22.2 -4.9 22.2 -2.8 C 22.2 -0.6 21.4 1 19.9 2.1 C 18.4 3.2 16.1 3.7 13.2 3.7 C 11.8 3.7 10.8 3.4 10 2.8 C 9.3 2.1 8.9 1.2 8.9 0 C 8.9 -6 8.8 -11.6 8.5 -16.8 C 8.2 -22 7.9 -26.6 7.6 -30.7 C 7.2 -34.8 6.9 -38.2 6.7 -40.9 C 6.4 -43.6 6.2 -45.4 6.2 -46.4 Z M 6.2 -46.4" />
            </g>
        </g>
    </g>
    <g fill="#ffffff" fill-opacity="1">
        <g transform="translate(593.6,672.5)">
            <g>
                <path
                    d="M 1.9 -74 C 1.9 -76.2 2.5 -77.8 3.8 -78.8 C 5.1 -79.7 7.3 -80.2 10.3 -80.2 C 11.3 -80.2 12.2 -80.1 13 -79.9 C 13.8 -79.6 14.4 -79.3 14.9 -78.8 C 15.5 -78.3 15.9 -77.6 16.2 -76.8 C 16.5 -75.9 16.8 -74.9 17 -73.6 C 17.6 -69.7 18.1 -65.7 18.7 -61.5 C 19.3 -57.2 19.9 -53 20.4 -48.9 C 21 -44.7 21.5 -40.6 21.9 -36.7 C 22.4 -32.7 22.8 -29 23.2 -25.6 C 23.6 -22.2 23.9 -19.2 24 -16.6 C 24.2 -14 24.3 -11.9 24.3 -10.4 C 24.3 -8.8 24.2 -7.5 23.9 -6.4 C 23.6 -5.3 23.2 -4.5 22.5 -3.8 C 21.8 -3.2 21 -2.7 19.9 -2.4 C 18.8 -2.2 17.5 -2 16 -2 C 14.5 -2 13.3 -2.4 12.4 -3.2 C 11.5 -4 11 -5.1 11 -6.8 C 11 -8.4 10.9 -10.6 10.6 -13.3 C 10.4 -16.1 10 -19.2 9.6 -22.5 C 9.2 -25.9 8.7 -29.5 8.1 -33.3 C 7.6 -37.1 7 -40.9 6.5 -44.6 C 5.9 -48.3 5.3 -51.9 4.8 -55.3 C 4.2 -58.8 3.8 -61.8 3.3 -64.5 C 2.9 -67.2 2.5 -69.4 2.3 -71.1 C 2 -72.8 1.9 -73.7 1.9 -74 Z M 1.9 -74" />
            </g>
        </g>
    </g>
</svg>
