<svg xmlns="http://www.w3.org/2000/svg" width="1080" zoomAndPan="magnify" viewBox="0 0 810 809.999993" height="1080" preserveAspectRatio="xMidYMid meet" version="1.2">
  <defs>
    <linearGradient x1="0" gradientTransform="matrix(0.75,0,0,0.75,0.0000035,0.00002)" y1="540" x2="1079.999955" gradientUnits="userSpaceOnUse" y2="540" id="ab24019d39">
      <stop style="stop-color: #ff3131; stop-opacity: 1" offset="0"></stop>
      <stop style="stop-color: #ff3131; stop-opacity: 1" offset="0"></stop>
      <stop style="stop-color: #ff3231; stop-opacity: 1" offset="0"></stop>
      <stop style="stop-color: #ff3332; stop-opacity: 1" offset="0"></stop>
      <stop style="stop-color: #ff3432; stop-opacity: 1" offset="0"></stop>
      <stop style="stop-color: #ff3432; stop-opacity: 1" offset="0"></stop>
      <stop style="stop-color: #ff3532; stop-opacity: 1" offset="0"></stop>
      <stop style="stop-color: #ff3632; stop-opacity: 1" offset="0.1"></stop>
      <stop style="stop-color: #ff3733; stop-opacity: 1" offset="0.1"></stop>
      <stop style="stop-color: #ff3733; stop-opacity: 1" offset="0.1"></stop>
      <stop style="stop-color: #ff3833; stop-opacity: 1" offset="0.1"></stop>
      <stop style="stop-color: #ff3933; stop-opacity: 1" offset="0.1"></stop>
      <stop style="stop-color: #ff3a34; stop-opacity: 1" offset="0.1"></stop>
      <stop style="stop-color: #ff3a34; stop-opacity: 1" offset="0.1"></stop>
      <stop style="stop-color: #ff3b34; stop-opacity: 1" offset="0.1"></stop>
      <stop style="stop-color: #ff3c34; stop-opacity: 1" offset="0.1"></stop>
      <stop style="stop-color: #ff3d34; stop-opacity: 1" offset="0.1"></stop>
      <stop style="stop-color: #ff3d35; stop-opacity: 1" offset="0.1"></stop>
      <stop style="stop-color: #ff3e35; stop-opacity: 1" offset="0.1"></stop>
      <stop style="stop-color: #ff3f35; stop-opacity: 1" offset="0.1"></stop>
      <stop style="stop-color: #ff4035; stop-opacity: 1" offset="0.2"></stop>
      <stop style="stop-color: #ff4035; stop-opacity: 1" offset="0.2"></stop>
      <stop style="stop-color: #ff4136; stop-opacity: 1" offset="0.2"></stop>
      <stop style="stop-color: #ff4236; stop-opacity: 1" offset="0.2"></stop>
      <stop style="stop-color: #ff4336; stop-opacity: 1" offset="0.2"></stop>
      <stop style="stop-color: #ff4336; stop-opacity: 1" offset="0.2"></stop>
      <stop style="stop-color: #ff4437; stop-opacity: 1" offset="0.2"></stop>
      <stop style="stop-color: #ff4537; stop-opacity: 1" offset="0.2"></stop>
      <stop style="stop-color: #ff4637; stop-opacity: 1" offset="0.2"></stop>
      <stop style="stop-color: #ff4637; stop-opacity: 1" offset="0.2"></stop>
      <stop style="stop-color: #ff4737; stop-opacity: 1" offset="0.2"></stop>
      <stop style="stop-color: #ff4838; stop-opacity: 1" offset="0.2"></stop>
      <stop style="stop-color: #ff4938; stop-opacity: 1" offset="0.3"></stop>
      <stop style="stop-color: #ff4938; stop-opacity: 1" offset="0.3"></stop>
      <stop style="stop-color: #ff4a38; stop-opacity: 1" offset="0.3"></stop>
      <stop style="stop-color: #ff4b39; stop-opacity: 1" offset="0.3"></stop>
      <stop style="stop-color: #ff4c39; stop-opacity: 1" offset="0.3"></stop>
      <stop style="stop-color: #ff4c39; stop-opacity: 1" offset="0.3"></stop>
      <stop style="stop-color: #ff4d39; stop-opacity: 1" offset="0.3"></stop>
      <stop style="stop-color: #ff4e39; stop-opacity: 1" offset="0.3"></stop>
      <stop style="stop-color: #ff4f3a; stop-opacity: 1" offset="0.3"></stop>
      <stop style="stop-color: #ff4f3a; stop-opacity: 1" offset="0.3"></stop>
      <stop style="stop-color: #ff503a; stop-opacity: 1" offset="0.3"></stop>
      <stop style="stop-color: #ff513a; stop-opacity: 1" offset="0.3"></stop>
      <stop style="stop-color: #ff523b; stop-opacity: 1" offset="0.3"></stop>
      <stop style="stop-color: #ff523b; stop-opacity: 1" offset="0.4"></stop>
      <stop style="stop-color: #ff533b; stop-opacity: 1" offset="0.4"></stop>
      <stop style="stop-color: #ff543b; stop-opacity: 1" offset="0.4"></stop>
      <stop style="stop-color: #ff553b; stop-opacity: 1" offset="0.4"></stop>
      <stop style="stop-color: #ff553c; stop-opacity: 1" offset="0.4"></stop>
      <stop style="stop-color: #ff563c; stop-opacity: 1" offset="0.4"></stop>
      <stop style="stop-color: #ff573c; stop-opacity: 1" offset="0.4"></stop>
      <stop style="stop-color: #ff583c; stop-opacity: 1" offset="0.4"></stop>
      <stop style="stop-color: #ff583c; stop-opacity: 1" offset="0.4"></stop>
      <stop style="stop-color: #ff593d; stop-opacity: 1" offset="0.4"></stop>
      <stop style="stop-color: #ff5a3d; stop-opacity: 1" offset="0.4"></stop>
      <stop style="stop-color: #ff5b3d; stop-opacity: 1" offset="0.4"></stop>
      <stop style="stop-color: #ff5b3d; stop-opacity: 1" offset="0.4"></stop>
      <stop style="stop-color: #ff5c3e; stop-opacity: 1" offset="0.5"></stop>
      <stop style="stop-color: #ff5d3e; stop-opacity: 1" offset="0.5"></stop>
      <stop style="stop-color: #ff5e3e; stop-opacity: 1" offset="0.5"></stop>
      <stop style="stop-color: #ff5e3e; stop-opacity: 1" offset="0.5"></stop>
      <stop style="stop-color: #ff5f3e; stop-opacity: 1" offset="0.5"></stop>
      <stop style="stop-color: #ff603f; stop-opacity: 1" offset="0.5"></stop>
      <stop style="stop-color: #ff613f; stop-opacity: 1" offset="0.5"></stop>
      <stop style="stop-color: #ff613f; stop-opacity: 1" offset="0.5"></stop>
      <stop style="stop-color: #ff623f; stop-opacity: 1" offset="0.5"></stop>
      <stop style="stop-color: #ff6340; stop-opacity: 1" offset="0.5"></stop>
      <stop style="stop-color: #ff6440; stop-opacity: 1" offset="0.5"></stop>
      <stop style="stop-color: #ff6440; stop-opacity: 1" offset="0.5"></stop>
      <stop style="stop-color: #ff6540; stop-opacity: 1" offset="0.5"></stop>
      <stop style="stop-color: #ff6640; stop-opacity: 1" offset="0.6"></stop>
      <stop style="stop-color: #ff6741; stop-opacity: 1" offset="0.6"></stop>
      <stop style="stop-color: #ff6741; stop-opacity: 1" offset="0.6"></stop>
      <stop style="stop-color: #ff6841; stop-opacity: 1" offset="0.6"></stop>
      <stop style="stop-color: #ff6941; stop-opacity: 1" offset="0.6"></stop>
      <stop style="stop-color: #ff6a42; stop-opacity: 1" offset="0.6"></stop>
      <stop style="stop-color: #ff6a42; stop-opacity: 1" offset="0.6"></stop>
      <stop style="stop-color: #ff6b42; stop-opacity: 1" offset="0.6"></stop>
      <stop style="stop-color: #ff6c42; stop-opacity: 1" offset="0.6"></stop>
      <stop style="stop-color: #ff6d42; stop-opacity: 1" offset="0.6"></stop>
      <stop style="stop-color: #ff6d43; stop-opacity: 1" offset="0.6"></stop>
      <stop style="stop-color: #ff6e43; stop-opacity: 1" offset="0.6"></stop>
      <stop style="stop-color: #ff6f43; stop-opacity: 1" offset="0.6"></stop>
      <stop style="stop-color: #ff7043; stop-opacity: 1" offset="0.7"></stop>
      <stop style="stop-color: #ff7043; stop-opacity: 1" offset="0.7"></stop>
      <stop style="stop-color: #ff7144; stop-opacity: 1" offset="0.7"></stop>
      <stop style="stop-color: #ff7244; stop-opacity: 1" offset="0.7"></stop>
      <stop style="stop-color: #ff7344; stop-opacity: 1" offset="0.7"></stop>
      <stop style="stop-color: #ff7344; stop-opacity: 1" offset="0.7"></stop>
      <stop style="stop-color: #ff7445; stop-opacity: 1" offset="0.7"></stop>
      <stop style="stop-color: #ff7545; stop-opacity: 1" offset="0.7"></stop>
      <stop style="stop-color: #ff7645; stop-opacity: 1" offset="0.7"></stop>
      <stop style="stop-color: #ff7645; stop-opacity: 1" offset="0.7"></stop>
      <stop style="stop-color: #ff7745; stop-opacity: 1" offset="0.7"></stop>
      <stop style="stop-color: #ff7846; stop-opacity: 1" offset="0.7"></stop>
      <stop style="stop-color: #ff7946; stop-opacity: 1" offset="0.8"></stop>
      <stop style="stop-color: #ff7946; stop-opacity: 1" offset="0.8"></stop>
      <stop style="stop-color: #ff7a46; stop-opacity: 1" offset="0.8"></stop>
      <stop style="stop-color: #ff7b47; stop-opacity: 1" offset="0.8"></stop>
      <stop style="stop-color: #ff7c47; stop-opacity: 1" offset="0.8"></stop>
      <stop style="stop-color: #ff7c47; stop-opacity: 1" offset="0.8"></stop>
      <stop style="stop-color: #ff7d47; stop-opacity: 1" offset="0.8"></stop>
      <stop style="stop-color: #ff7e47; stop-opacity: 1" offset="0.8"></stop>
      <stop style="stop-color: #ff7f48; stop-opacity: 1" offset="0.8"></stop>
      <stop style="stop-color: #ff7f48; stop-opacity: 1" offset="0.8"></stop>
      <stop style="stop-color: #ff8048; stop-opacity: 1" offset="0.8"></stop>
      <stop style="stop-color: #ff8148; stop-opacity: 1" offset="0.8"></stop>
      <stop style="stop-color: #ff8249; stop-opacity: 1" offset="0.8"></stop>
      <stop style="stop-color: #ff8249; stop-opacity: 1" offset="0.9"></stop>
      <stop style="stop-color: #ff8349; stop-opacity: 1" offset="0.9"></stop>
      <stop style="stop-color: #ff8449; stop-opacity: 1" offset="0.9"></stop>
      <stop style="stop-color: #ff8549; stop-opacity: 1" offset="0.9"></stop>
      <stop style="stop-color: #ff854a; stop-opacity: 1" offset="0.9"></stop>
      <stop style="stop-color: #ff864a; stop-opacity: 1" offset="0.9"></stop>
      <stop style="stop-color: #ff874a; stop-opacity: 1" offset="0.9"></stop>
      <stop style="stop-color: #ff884a; stop-opacity: 1" offset="0.9"></stop>
      <stop style="stop-color: #ff884a; stop-opacity: 1" offset="0.9"></stop>
      <stop style="stop-color: #ff894b; stop-opacity: 1" offset="0.9"></stop>
      <stop style="stop-color: #ff8a4b; stop-opacity: 1" offset="0.9"></stop>
      <stop style="stop-color: #ff8b4b; stop-opacity: 1" offset="0.9"></stop>
      <stop style="stop-color: #ff8b4b; stop-opacity: 1" offset="0.9"></stop>
      <stop style="stop-color: #ff8c4c; stop-opacity: 1" offset="1"></stop>
      <stop style="stop-color: #ff8d4c; stop-opacity: 1" offset="1"></stop>
      <stop style="stop-color: #ff8e4c; stop-opacity: 1" offset="1"></stop>
      <stop style="stop-color: #ff8e4c; stop-opacity: 1" offset="1"></stop>
      <stop style="stop-color: #ff8f4c; stop-opacity: 1" offset="1"></stop>
      <stop style="stop-color: #ff904d; stop-opacity: 1" offset="1"></stop>
      <stop style="stop-color: #ff914d; stop-opacity: 1" offset="1"></stop>
    </linearGradient>
    <clipPath id="d9ff28b97b">
      <path d="M 193 132.3 L 399 132.3 L 399 528 L 193 528 Z M 193 132.3"></path>
    </clipPath>
    <clipPath id="a81aed8155">
      <path d="M 411 132.3 L 617 132.3 L 617 528 L 411 528 Z M 411 132.3"></path>
    </clipPath>
    <clipPath id="0a77881539">
      <path d="M 128.4 207 L 348 207 L 348 526 L 128.4 526 Z M 128.4 207"></path>
    </clipPath>
    <clipPath id="4de4c2800c">
      <path d="M 462 207 L 681.9 207 L 681.9 526 L 462 526 Z M 462 207"></path>
    </clipPath>
    <clipPath id="bc6d0ba2ea">
      <rect x="0" width="488" y="0" height="232"></rect>
    </clipPath>
  </defs>
  <rect x="0" width="810" y="0" height="810" style="fill: #ffffff; stroke: none; fill-opacity: 1"></rect>
  <rect x="0" width="810" y="0" height="810" style="fill: url(#ab24019d39); stroke: none"></rect>
  <g clip-rule="nonzero" clip-path="url(#d9ff28b97b)">
    <path style="fill: rgb(249, 250, 253); fill-rule: nonzero; stroke: rgb(255, 255, 255); stroke-width: 7px; fill-opacity: 1" d="M 199.7 460.6 C 216.1 461.6 246.7 464.7 281.4 474.3 C 316.2 483.8 355 499.9 388.1 526.6 C 390 528 392.5 528.3 394.6 527.3 C 396.8 526.3 398.1 524.1 398.1 521.8 L 398.1 199.7 C 398.1 197.8 397.2 196 395.7 194.8 C 386.7 188.1 365.3 173.4 332.4 159.9 C 299.5 146.5 255 134.3 200.3 132.6 C 198.6 132.5 197 133.1 195.8 134.3 C 194.6 135.5 193.9 137.1 193.9 138.7 L 193.9 454.5 C 193.9 457.7 196.5 460.4 199.7 460.6 Z M 385.8 202.8 L 385.8 509.4 C 353.4 485.8 317.2 471.4 284.7 462.4 C 252.6 453.6 224.1 450.1 206.2 448.7 L 206.2 145.1 C 256.4 147.5 297.2 158.9 327.7 171.3 C 356.7 183.2 376.3 195.9 385.8 202.8 Z M 385.8 202.8"></path>
  </g>
  <g clip-rule="nonzero" clip-path="url(#a81aed8155)">
    <path style="fill: rgb(249, 250, 253); fill-rule: nonzero; stroke: rgb(249, 250, 253); stroke-width: 7px; fill-opacity: 1; paint-order: stroke" d="M 415.4 527.3 C 417.5 528.3 420 528 421.9 526.5 C 455 499.9 493.8 483.8 528.6 474.3 C 563.3 464.7 593.9 461.6 610.3 460.6 C 613.5 460.4 616.1 457.7 616.1 454.5 L 616.1 138.7 C 616.1 137.1 615.4 135.5 614.2 134.3 C 613 133.1 611.4 132.5 609.7 132.6 C 554.7 134.3 510.3 146.5 477.4 159.9 C 444.5 173.3 423.2 188 414.3 194.8 C 412.8 196 411.9 197.8 411.9 199.7 L 411.9 521.7 C 411.9 524.1 413.2 526.3 415.4 527.3 Z M 482.1 171.3 C 512.5 158.9 553.3 147.5 603.8 145.1 L 603.8 448.7 C 585.9 450.1 557.4 453.6 525.3 462.4 C 492.8 471.3 456.6 485.8 424.2 509.3 L 424.2 202.8 C 433.6 195.9 453.1 183.1 482.1 171.3 Z M 482.1 171.3"></path>
  </g>
  <g clip-rule="nonzero" clip-path="url(#0a77881539)">
    <path style="fill: rgb(249, 250, 253); fill-rule: nonzero; stroke: rgb(249, 250, 253); stroke-width: 7px; fill-opacity: 1" d="M 339.6 525.3 C 342.6 526 345.6 524.4 346.7 521.5 C 347.8 518.6 346.6 515.3 343.9 513.9 C 307.4 494.1 268.6 484.2 238.7 479.1 C 223.7 476.6 211 475.3 201.9 474.6 C 197.4 474.3 193.8 474.1 191.3 474 C 190 473.9 189 473.9 188.3 473.9 C 187.9 473.9 187.7 473.9 187.5 473.9 C 187.2 473.9 187.1 473.9 187 473.9 L 180.2 473.9 L 180.2 214.5 C 180.2 211.3 177.7 208.6 174.6 208.3 C 169.7 207.9 164.6 207.8 159.4 207.8 C 150.4 207.8 141.4 208.3 134 208.8 C 130.8 209.1 128.4 211.8 128.4 215 L 128.4 505.4 C 128.4 507.1 129.1 508.8 130.4 510 C 131.8 511.2 133.5 511.7 135.2 511.5 C 155.6 509.1 175.6 508.1 195.1 508.1 C 250.8 508.1 301.6 516.5 339.6 525.3 Z M 167.9 220.2 L 167.9 480 C 167.9 481.7 168.5 483.3 169.7 484.4 C 170.8 485.5 172.4 486.2 174 486.2 L 187.1 486.2 C 187.5 486.2 192.8 486.3 201.6 486.9 C 214.9 488 236.1 490.4 260.4 496 C 267.9 497.8 275.7 499.9 283.6 502.3 C 256.6 498.4 226.7 495.8 195.1 495.8 C 177.4 495.8 159.2 496.6 140.7 498.5 L 140.7 220.7 C 146.5 220.3 153 220.1 159.4 220.1 C 162.3 220.1 165.1 220.1 167.9 220.2 Z M 167.9 220.2"></path>
  </g>
  <g clip-rule="nonzero" clip-path="url(#4de4c2800c)">
    <path style="fill: rgb(249, 250, 253); fill-rule: nonzero; stroke: rgb(249, 250, 253); stroke-width: 7px; fill-opacity: 1" d="M 676 208.8 C 668.6 208.3 659.5 207.8 650.6 207.8 C 645.4 207.8 640.2 207.9 635.4 208.3 C 632.3 208.6 629.8 211.3 629.8 214.5 L 629.8 473.9 L 623 473.9 L 623 473.9 C 622.9 473.9 622.8 473.9 622.6 473.9 C 619.4 473.9 597.9 474.4 568.4 479.6 C 538.9 484.9 501.3 494.8 466 513.9 C 463.2 515.4 462 518.6 463.1 521.5 C 464.2 524.4 467.3 526 470.3 525.3 C 508.2 516.5 559.1 508.1 614.9 508.1 C 634.4 508.1 654.4 509.1 674.8 511.5 C 676.5 511.7 678.2 511.2 679.6 510 C 680.9 508.8 681.6 507.1 681.6 505.4 L 681.6 215 C 681.6 211.8 679.2 209.1 676 208.8 Z M 526.4 502.3 C 543.2 497.2 559.2 493.7 573.3 491.3 C 587.8 488.8 600.2 487.6 608.9 486.9 C 613.3 486.6 616.8 486.4 619.2 486.3 C 620.4 486.3 621.3 486.2 622 486.2 C 622.3 486.2 622.6 486.2 622.7 486.2 L 622.9 486.2 L 623 486.2 C 623 486.2 623 486.2 623 486.2 L 623 486.2 L 636 486.2 C 639.4 486.2 642.1 483.4 642.1 480 L 642.1 220.2 C 644.9 220.1 647.7 220.1 650.6 220.1 C 656.9 220.1 663.5 220.3 669.3 220.7 L 669.3 498.5 C 650.8 496.6 632.6 495.8 614.9 495.8 C 583.3 495.8 553.4 498.4 526.4 502.3 Z M 526.4 502.3"></path>
  </g>
  <g transform="matrix(1,0,0,1,151,515)">
    <g clip-path="url(#bc6d0ba2ea)">
      <g style="fill: #f9fafd; fill-opacity: 1">
        <g transform="translate(1,186.9)">
          <path style="stroke: none" d="M 78.7 -149.1 C 85.9 -149.1 93 -148.1 99.7 -146.1 C 106.5 -144.2 112.9 -141.3 118.8 -137.7 L 109.7 -121.4 C 105.2 -124.6 100.3 -126.9 95 -128.5 C 89.7 -130.1 84.3 -130.8 78.7 -130.8 C 72.4 -130.8 66.4 -129.9 60.7 -127.9 C 55 -126 49.8 -123.3 45 -119.9 C 40.3 -116.4 36.2 -112.3 32.7 -107.6 C 29.2 -102.9 26.4 -97.6 24.5 -92 C 22.6 -86.3 21.6 -80.3 21.6 -74 C 21.6 -67.7 22.6 -61.8 24.5 -56.1 C 26.4 -50.4 29.2 -45.2 32.7 -40.4 C 36.2 -35.7 40.3 -31.6 45 -28.2 C 49.8 -24.7 55 -22 60.7 -20.1 C 66.4 -18.1 72.4 -17.2 78.7 -17.2 C 84.3 -17.2 89.7 -18 95 -19.6 C 100.3 -21.1 105.2 -23.5 109.7 -26.6 L 118.8 -10.5 C 112.9 -6.8 106.5 -3.9 99.7 -1.9 C 93 0.1 85.9 1.1 78.7 1.1 C 70.3 1.1 62.3 -0.1 54.8 -2.7 C 47.2 -5.2 40.3 -8.8 34.1 -13.3 C 27.8 -17.9 22.4 -23.3 17.8 -29.6 C 13.2 -35.8 9.7 -42.7 7.1 -50.2 C 4.6 -57.7 3.3 -65.6 3.3 -74 C 3.3 -82.3 4.6 -90.2 7.1 -97.7 C 9.7 -105.2 13.2 -112.1 17.8 -118.4 C 22.4 -124.7 27.8 -130.1 34.1 -134.7 C 40.3 -139.3 47.2 -142.8 54.8 -145.3 C 62.3 -147.9 70.3 -149.1 78.7 -149.1 Z M 78.7 -128.9 C 84.2 -128.9 89.5 -128.1 94.6 -126.5 C 99.7 -124.9 104.3 -122.7 108.6 -119.8 L 99.9 -103.7 C 96.8 -105.9 93.5 -107.6 89.9 -108.8 C 86.4 -110 82.6 -110.6 78.7 -110.6 C 73.5 -110.6 68.7 -109.7 64.3 -107.8 C 59.8 -105.9 55.9 -103.3 52.5 -99.9 C 49.2 -96.6 46.6 -92.7 44.7 -88.3 C 42.8 -83.9 41.9 -79.1 41.9 -74 C 41.9 -68.9 42.8 -64.1 44.7 -59.7 C 46.6 -55.3 49.2 -51.4 52.5 -48.1 C 55.9 -44.7 59.8 -42.1 64.3 -40.2 C 68.7 -38.3 73.5 -37.4 78.7 -37.4 C 82.6 -37.4 86.4 -38 89.9 -39.2 C 93.5 -40.4 96.8 -42.1 99.9 -44.3 L 108.6 -28.2 C 104.3 -25.3 99.7 -23.1 94.6 -21.5 C 89.5 -19.9 84.2 -19.1 78.7 -19.1 C 71 -19.1 63.9 -20.5 57.3 -23.4 C 50.6 -26.3 44.8 -30.2 39.7 -35.2 C 34.7 -40.3 30.7 -46.1 27.9 -52.7 C 25 -59.4 23.6 -66.5 23.6 -74 C 23.6 -81.6 25 -88.6 27.9 -95.2 C 30.7 -101.8 34.7 -107.7 39.7 -112.7 C 44.8 -117.8 50.6 -121.7 57.3 -124.6 C 63.9 -127.5 71 -128.9 78.7 -128.9 Z M 78.7 -128.9"></path>
        </g>
        <g transform="translate(125.3,186.9)">
          <path style="stroke: none" d="M 78.7 -149.1 C 85.9 -149.1 93 -148.1 99.7 -146.1 C 106.5 -144.2 112.9 -141.3 118.8 -137.7 L 109.7 -121.4 C 105.2 -124.6 100.3 -126.9 95 -128.5 C 89.7 -130.1 84.3 -130.8 78.7 -130.8 C 72.4 -130.8 66.4 -129.9 60.7 -127.9 C 55 -126 49.8 -123.3 45 -119.9 C 40.3 -116.4 36.2 -112.3 32.7 -107.6 C 29.2 -102.9 26.4 -97.6 24.5 -92 C 22.6 -86.3 21.6 -80.3 21.6 -74 C 21.6 -67.7 22.6 -61.8 24.5 -56.1 C 26.4 -50.4 29.2 -45.2 32.7 -40.4 C 36.2 -35.7 40.3 -31.6 45 -28.2 C 49.8 -24.7 55 -22 60.7 -20.1 C 66.4 -18.1 72.4 -17.2 78.7 -17.2 C 84.3 -17.2 89.7 -18 95 -19.6 C 100.3 -21.1 105.2 -23.5 109.7 -26.6 L 118.8 -10.5 C 112.9 -6.8 106.5 -3.9 99.7 -1.9 C 93 0.1 85.9 1.1 78.7 1.1 C 70.3 1.1 62.3 -0.1 54.8 -2.7 C 47.2 -5.2 40.3 -8.8 34.1 -13.3 C 27.8 -17.9 22.4 -23.3 17.8 -29.6 C 13.2 -35.8 9.7 -42.7 7.1 -50.2 C 4.6 -57.7 3.3 -65.6 3.3 -74 C 3.3 -82.3 4.6 -90.2 7.1 -97.7 C 9.7 -105.2 13.2 -112.1 17.8 -118.4 C 22.4 -124.7 27.8 -130.1 34.1 -134.7 C 40.3 -139.3 47.2 -142.8 54.8 -145.3 C 62.3 -147.9 70.3 -149.1 78.7 -149.1 Z M 78.7 -128.9 C 84.2 -128.9 89.5 -128.1 94.6 -126.5 C 99.7 -124.9 104.3 -122.7 108.6 -119.8 L 99.9 -103.7 C 96.8 -105.9 93.5 -107.6 89.9 -108.8 C 86.4 -110 82.6 -110.6 78.7 -110.6 C 73.5 -110.6 68.7 -109.7 64.3 -107.8 C 59.8 -105.9 55.9 -103.3 52.5 -99.9 C 49.2 -96.6 46.6 -92.7 44.7 -88.3 C 42.8 -83.9 41.9 -79.1 41.9 -74 C 41.9 -68.9 42.8 -64.1 44.7 -59.7 C 46.6 -55.3 49.2 -51.4 52.5 -48.1 C 55.9 -44.7 59.8 -42.1 64.3 -40.2 C 68.7 -38.3 73.5 -37.4 78.7 -37.4 C 82.6 -37.4 86.4 -38 89.9 -39.2 C 93.5 -40.4 96.8 -42.1 99.9 -44.3 L 108.6 -28.2 C 104.3 -25.3 99.7 -23.1 94.6 -21.5 C 89.5 -19.9 84.2 -19.1 78.7 -19.1 C 71 -19.1 63.9 -20.5 57.3 -23.4 C 50.6 -26.3 44.8 -30.2 39.7 -35.2 C 34.7 -40.3 30.7 -46.1 27.9 -52.7 C 25 -59.4 23.6 -66.5 23.6 -74 C 23.6 -81.6 25 -88.6 27.9 -95.2 C 30.7 -101.8 34.7 -107.7 39.7 -112.7 C 44.8 -117.8 50.6 -121.7 57.3 -124.6 C 63.9 -127.5 71 -128.9 78.7 -128.9 Z M 78.7 -128.9"></path>
        </g>
        <g transform="translate(249.5,186.9)">
          <path style="stroke: none" d="M 48.3 -131.9 C 42.9 -132 38.3 -131 34.4 -128.9 C 30.5 -126.8 27.5 -124 25.2 -120.5 C 23 -117 21.5 -113.2 20.8 -108.9 C 20.1 -104.7 20.2 -100.5 21.1 -96.3 C 22 -92 23.7 -88.1 26.1 -84.6 C 28.6 -81 31.9 -78.2 36 -76 C 40.1 -73.8 45 -72.7 50.7 -72.7 L 69.3 -72.5 C 75.8 -72.5 81.2 -71.2 85.5 -68.8 C 89.8 -66.3 93.1 -63 95.3 -59 C 97.5 -55.1 98.6 -50.8 98.6 -46.3 C 98.6 -41.1 97.6 -36.3 95.5 -32 C 93.5 -27.6 90.6 -24.2 86.6 -21.6 C 82.7 -19.1 78 -17.8 72.4 -17.8 L 54.6 -18 C 49.7 -18.1 45 -19 40.5 -20.7 C 35.9 -22.4 32.1 -25 28.9 -28.4 C 25.7 -31.8 23.8 -36 23 -41 L 40.8 -44.4 C 41.5 -42.1 42.9 -40.2 44.9 -38.6 C 46.9 -37 49.2 -36.1 51.7 -35.9 L 72.2 -35.9 C 74.5 -35.9 76.3 -36.5 77.7 -37.9 C 79.1 -39.2 80 -40.8 80.4 -42.8 C 80.9 -44.7 80.9 -46.7 80.4 -48.6 C 79.9 -50.6 79 -52.2 77.6 -53.5 C 76.3 -54.8 74.5 -55.5 72.2 -55.5 L 53.4 -55.5 C 44.8 -55.5 37.3 -56.8 30.9 -59.4 C 24.5 -62.1 19.1 -65.6 14.9 -70.1 C 10.6 -74.5 7.4 -79.5 5.3 -85 C 3.1 -90.5 1.9 -96.3 1.8 -102.2 C 1.7 -108.1 2.6 -113.9 4.5 -119.4 C 6.4 -124.9 9.3 -129.9 13.1 -134.4 C 17 -138.8 21.8 -142.4 27.6 -145 C 33.4 -147.6 40.1 -148.9 47.7 -148.9 L 67.7 -148.9 C 73.5 -148.9 79.1 -148 84.6 -146.2 C 90 -144.4 95 -141.8 99.5 -138.4 C 104.1 -135 107.9 -130.9 110.9 -126.2 C 113.9 -121.5 116 -116.3 117 -110.6 L 100.3 -107.7 C 99.8 -111.7 98.4 -115.3 96.3 -118.3 C 94.3 -121.3 91.6 -123.9 88.5 -125.9 C 85.3 -127.9 81.8 -129.4 78 -130.4 C 74.2 -131.4 70.3 -131.9 66.3 -131.9 Z M 72.4 -15.8 C 77.4 -15.8 81.8 -16.6 85.3 -18.2 C 88.9 -19.8 91.8 -22.1 94 -24.9 C 96.2 -27.8 97.9 -31.1 98.9 -34.7 C 100 -38.4 100.5 -42.3 100.5 -46.3 C 100.5 -49.9 99.9 -53.4 98.6 -56.7 C 97.4 -60.1 95.5 -63.1 92.9 -65.8 C 90.4 -68.5 87.1 -70.6 83.2 -72.2 C 79.2 -73.8 74.6 -74.6 69.3 -74.6 L 50.3 -74.6 C 45.1 -74.7 40.6 -75.7 36.8 -77.8 C 33.1 -79.8 30.1 -82.4 27.8 -85.8 C 25.5 -89.1 23.9 -92.8 23.1 -96.7 C 22.3 -100.6 22.2 -104.6 22.8 -108.5 C 23.4 -112.5 24.8 -116.1 26.9 -119.3 C 29 -122.6 31.8 -125.2 35.3 -127.2 C 38.9 -129.1 43.1 -130.1 48.1 -130.1 L 66.5 -130.1 C 71.4 -130.1 76.2 -129.3 80.7 -127.5 C 85.2 -125.8 89 -123.3 92.2 -119.9 C 95.4 -116.5 97.3 -112.2 98 -107.1 L 80.4 -103.7 C 79.6 -106 78.3 -108 76.3 -109.6 C 74.3 -111.2 72 -112.1 69.5 -112.1 L 48.9 -112.1 C 46.6 -112.1 44.8 -111.5 43.4 -110.2 C 42 -108.8 41.1 -107.2 40.6 -105.3 C 40.2 -103.4 40.2 -101.4 40.6 -99.5 C 41.1 -97.5 42 -95.9 43.4 -94.6 C 44.8 -93.3 46.6 -92.6 48.9 -92.6 L 67.7 -92.6 C 76 -92.6 83.3 -91.3 89.6 -88.7 C 95.8 -86.1 101.1 -82.6 105.4 -78.2 C 109.7 -73.8 112.9 -68.8 115.1 -63.3 C 117.3 -57.8 118.4 -52.1 118.5 -46.3 C 118.6 -40.4 117.5 -34.7 115.4 -29.1 C 113.3 -23.5 110.1 -18.5 105.9 -13.9 C 101.7 -9.4 96.4 -5.8 90.1 -3.2 C 83.8 -0.5 76.5 0.8 68.3 0.8 L 53.4 0.8 C 47.7 0.8 42.1 -0.1 36.6 -1.9 C 31.1 -3.7 26.1 -6.4 21.6 -9.8 C 17 -13.2 13.2 -17.2 10.1 -21.9 C 6.9 -26.6 4.8 -31.8 3.7 -37.5 L 20.8 -40.4 C 21.4 -36.4 22.7 -32.8 24.8 -29.8 C 26.9 -26.7 29.5 -24.1 32.7 -22.1 C 35.8 -20 39.3 -18.5 43.1 -17.5 C 46.9 -16.5 50.8 -16 54.8 -16 Z M 72.4 -15.8"></path>
        </g>
        <g transform="translate(372.6,186.9)">
          <path style="stroke: none" d="M 4 -96.6 C 4 -103.6 5.4 -110.3 8.1 -116.5 C 10.8 -122.8 14.5 -128.2 19.2 -133 C 23.9 -137.7 29.4 -141.4 35.6 -144.1 C 41.8 -146.8 48.4 -148.1 55.4 -148.1 L 107.7 -148.1 L 107.7 -130.6 L 55.4 -130.6 C 50.9 -130.6 46.6 -129.8 42.6 -128 C 38.5 -126.3 34.9 -123.8 31.8 -120.8 C 28.8 -117.7 26.3 -114.1 24.6 -110.1 C 22.8 -106.1 21.9 -101.7 21.9 -97.2 L 21.9 -51.1 C 21.9 -46.5 22.8 -42.2 24.6 -38.1 C 26.3 -34.1 28.8 -30.5 31.8 -27.4 C 34.9 -24.4 38.5 -22 42.6 -20.2 C 46.6 -18.5 50.9 -17.6 55.4 -17.6 L 107.7 -17.6 L 107.7 0.1 L 55.4 0.1 C 48.4 0.1 41.8 -1.3 35.6 -3.9 C 29.4 -6.6 23.9 -10.4 19.2 -15.1 C 14.5 -19.9 10.8 -25.3 8.1 -31.5 C 5.4 -37.7 4 -44.3 4 -51.3 Z M 41.9 -97.2 C 41.9 -99.7 42.5 -101.9 43.7 -103.9 C 45 -106 46.6 -107.6 48.6 -108.8 C 50.7 -110.1 52.9 -110.7 55.4 -110.7 L 107.7 -110.7 L 107.7 -128.5 L 55.4 -128.5 C 51.2 -128.5 47.1 -127.7 43.4 -126 C 39.6 -124.4 36.3 -122.1 33.4 -119.3 C 30.5 -116.4 28.2 -113 26.5 -109.2 C 24.9 -105.4 24.1 -101.4 24.1 -97.2 L 24.1 -75.2 L 107.7 -75.2 L 107.7 -93.1 L 41.9 -93.1 Z M 24.1 -73.1 L 24.1 -51.1 C 24.1 -46.8 24.9 -42.8 26.5 -39 C 28.2 -35.2 30.5 -31.8 33.4 -29 C 36.3 -26.1 39.6 -23.8 43.4 -22.2 C 47.1 -20.5 51.2 -19.7 55.4 -19.7 L 107.7 -19.7 L 107.7 -37.5 L 55.4 -37.5 C 52.9 -37.5 50.7 -38.1 48.6 -39.4 C 46.6 -40.6 45 -42.3 43.7 -44.3 C 42.5 -46.4 41.9 -48.6 41.9 -51.1 L 41.9 -55.1 L 107.7 -55.1 L 107.7 -73.1 Z M 24.1 -73.1"></path>
        </g>
      </g>
    </g>
  </g>
</svg>